<svg viewBox="0 0 264 123.8" xmlns="http://www.w3.org/2000/svg">
 <g transform="translate(-264.8 -24.7)">
    <path fill="#8CC1DB" opacity="0.3" d="m264.5 99.6c2.3.7 3.8 2.6 4.3 4.7l24.9-3.3c-.1-1 .1-2.1.4-3.2.7-2.1 2.1-3.8 3.9-4.8l-9.2-19.3c-1.1.4-2.3.4-3.4 0-2.8-.9-4.4-4-3.4-6.8.9-2.8 4-4.4 6.8-3.4 2.8.9 4.4 4 3.4 6.8-.4 1.3-1.2 2.3-2.3 2.9l9.2 19.3c1.8-.7 3.8-.8 5.7-.2.7.2 1.4.5 2 .9l19.1-25.7c-1.9-1.7-2.7-4.3-1.8-6.8 1.1-3.4 4.8-5.3 8.2-4.2s5.3 4.8 4.2 8.2-4.8 5.3-8.2 4.2c-.5-.2-.9-.4-1.4-.6l-19.1 25.7c2.5 2.2 3.6 5.7 2.5 9.1-.1.3-.2.5-.3.8l13.5 7.1c1.3-1.9 3.8-2.9 6.1-2.1 2.8.9 4.4 4 3.4 6.8-.9 2.8-4 4.4-6.8 3.4-2.8-.9-4.4-4-3.4-6.8 0-.1.1-.2.1-.3l-13.5-7.1c-2 3.2-6 4.8-9.8 3.6-.9-.3-1.6-.7-2.3-1.2l-6.7 8.1c.9 1 1.3 2.5.8 4-.7 2.1-3 3.3-5.1 2.6s-3.3-3-2.6-5.1 3-3.3 5.1-2.6c.3.1.6.2.9.4l6.7-8.1c-1.2-1.2-2.1-2.7-2.4-4.4l-24.9 3.3c0 .8-.1 1.5-.3 2.3-1.1 3.4-4.8 5.3-8.2 4.2s-5.3-4.8-4.2-8.2c1.1-3.5 4.7-5.3 8.1-4.2zm55.4-54.7c-1.4-.5-2.9-.2-4 .8l-7.9-6.9c.5-.7.9-1.5 1.2-2.3 1.3-3.8-.2-7.8-3.4-9.9l7.4-13.3c.1 0 .2.1.3.1 2.8 1 5.9-.5 6.9-3.3s-.5-5.9-3.3-6.9-5.9.5-6.9 3.3c-.8 2.3.1 4.8 2 6.2l-7.4 13.3c-.3-.1-.5-.2-.8-.3-3.3-1.2-6.9-.1-9.1 2.3l-25.3-19.6c.3-.4.5-.9.7-1.4 1.2-3.4-.6-7.1-4-8.3s-7.1.6-8.3 4 .6 7.1 4 8.3c2.5.9 5.2.1 6.9-1.7l25.3 19.6c-.4.6-.7 1.2-1 1.9-.7 1.9-.6 3.9.1 5.7l-19.5 8.8c-.6-1.1-1.6-1.9-2.9-2.3-2.8-1-5.9.5-6.9 3.3s.5 5.9 3.3 6.9 5.9-.5 6.9-3.3c.4-1.2.4-2.3 0-3.4l19.5-8.8c1 1.8 2.6 3.3 4.7 4 1 .4 2.1.5 3.1.5l2.8 24.9c-2.2.4-4 2-4.8 4.2-1.2 3.4.6 7.1 4 8.3s7.1-.6 8.3-4-.6-7.1-4-8.3c-.8-.3-1.5-.4-2.3-.4l-2.8-24.9c1.7-.3 3.3-1.1 4.5-2.4l7.9 6.9c-.2.3-.3.5-.4.8-.7 2.1.4 4.4 2.5 5.2 2.1.7 4.4-.4 5.2-2.5s-.3-4.4-2.5-5.1zm17.8 81.5c0 2 1.7 3.7 3.8 3.6 2 0 3.7-1.7 3.6-3.8 0-.8-.3-1.6-.8-2.2l10.5-10.4c1.1.9 2.5 1.5 4 1.5.8 0 1.5-.2 2.1-.5l7.8 15.4c-1.3.8-2.1 2.3-2.1 3.9.1 2.5 2.1 4.4 4.6 4.4s4.4-2.1 4.4-4.6c-.1-2.5-2.1-4.4-4.6-4.4-.5 0-1.1.1-1.6.3l-7.8-15.4c1-.6 1.8-1.5 2.3-2.6l6.8 2.5c0 .2-.1.4-.1.6 0 1.5 1.3 2.8 2.9 2.7 1.5 0 2.8-1.3 2.7-2.9 0-1.5-1.3-2.8-2.9-2.7-1 0-1.9.6-2.4 1.4l-6.8-2.5c.2-.6.2-1.2.2-1.8-.1-2.7-2-5-4.6-5.6l1.6-10.4h.2c2 0 3.7-1.7 3.6-3.8s-1.7-3.7-3.8-3.6c-2 0-3.7 1.7-3.6 3.8 0 1.7 1.2 3.1 2.8 3.5l-1.6 10.4h-.6c-2.4.1-4.5 1.6-5.3 3.7l-21-6.6c.1-.3.1-.7.1-1-.1-2.5-2.1-4.4-4.6-4.4-2.5.1-4.4 2.1-4.4 4.6.1 2.5 2.1 4.4 4.6 4.4 1.8 0 3.4-1.2 4-2.8l21 6.6c-.1.5-.2 1-.2 1.5 0 1.4.6 2.7 1.4 3.7l-10.5 10.4c-.7-.5-1.5-.8-2.4-.8-1.7.1-3.3 1.8-3.3 3.9zm30.9-112.8c.1-.3.1-.7.1-1-.1-2.5-2.1-4.4-4.6-4.4-2.5.1-4.4 2.1-4.4 4.6s2.1 4.4 4.6 4.4c1.8 0 3.4-1.2 4-2.8l21 6.6c-.1.5-.2 1-.2 1.5 0 1.4.6 2.7 1.4 3.7l-10.5 10.4c-.7-.5-1.5-.8-2.4-.8-2 0-3.7 1.7-3.6 3.8 0 2 1.7 3.7 3.8 3.6 2 0 3.7-1.7 3.6-3.8 0-.8-.3-1.6-.8-2.2l10.5-10.4c1.1.9 2.5 1.5 4 1.5.8 0 1.5-.2 2.1-.5l7.8 15.4c-1.3.8-2.1 2.3-2.1 3.9.1 2.5 2.1 4.4 4.6 4.4 2.5-.1 4.4-2.1 4.4-4.6-.1-2.5-2.1-4.4-4.6-4.4-.5 0-1.1.1-1.6.3l-7.8-15.4c1-.6 1.8-1.5 2.3-2.6l6.8 2.5c0 .2-.1.4-.1.6 0 1.5 1.3 2.8 2.9 2.7s2.8-1.3 2.7-2.9c0-1.5-1.3-2.8-2.9-2.7-1 0-1.9.6-2.4 1.4l-6.8-2.5c.2-.6.2-1.2.2-1.8-.1-2.7-2-5-4.6-5.6l1.6-10.4h.2c2 0 3.7-1.7 3.6-3.8 0-2-1.7-3.7-3.8-3.6-2 0-3.7 1.7-3.6 3.8 0 1.7 1.2 3.1 2.8 3.5l-1.6 10.4h-.6c-2.4.1-4.5 1.6-5.3 3.7zm-9 5.2c-1.7-.5-3.4.5-3.9 2.2-.1.4-.1.7-.1 1.1l-12 2c-.2-.8-.6-1.6-1.3-2.1l3.1-4c.1.1.3.1.4.2 1 .3 2.1-.3 2.4-1.3s-.3-2.1-1.3-2.4-2.1.3-2.4 1.3c-.2.7 0 1.4.5 1.9l-3.1 4c-.3-.2-.7-.4-1.1-.5-1.9-.5-3.8.3-4.7 1.9l-6.7-3.2v-.1c.4-1.4-.4-2.8-1.8-3.2s-2.8.4-3.2 1.8.4 2.8 1.8 3.2c1.1.3 2.3-.2 2.9-1.1l6.7 3.2c-.1.1-.1.3-.1.4-.5 1.6.1 3.4 1.4 4.4l-9 12.5c-.2-.1-.4-.2-.7-.3-1.7-.5-3.4.5-3.9 2.2s.5 3.4 2.2 3.9 3.4-.5 3.9-2.2c.4-1.2-.1-2.5-1-3.3l8.9-12.8c.3.2.6.3 1 .4 1 .3 1.9.2 2.8-.2l4.8 9.2c-.5.3-.9.8-1.1 1.4-.4 1.4.4 2.8 1.8 3.2s2.8-.4 3.2-1.8-.4-2.8-1.8-3.2c-.6-.2-1.1-.1-1.7.1l-4.8-9.2c.9-.5 1.5-1.3 1.8-2.4.1-.5.2-1 .1-1.5l12-2c.3 1 1.1 1.9 2.2 2.2 1.7.5 3.4-.5 3.9-2.2s-.4-3.2-2.1-3.7zm465.7 85.1c.3 1.4 1.6 2.4 3 2.1 1.2-.2 2-1.2 2.1-2.3l7.4-.1c0 .1 0 .3.1.4.3 1.7 1.6 2.9 3.2 3.3l-2.2 15.4h-.7c-1.7.3-2.8 2-2.5 3.7s2 2.8 3.7 2.5 2.8-2 2.5-3.7c-.2-1.3-1.2-2.2-2.4-2.5l2.2-15.4c.3 0 .7 0 1-.1 1-.2 1.8-.7 2.4-1.4l8.4 6.1c-.3.5-.4 1.1-.3 1.8.3 1.4 1.6 2.4 3 2.1s2.4-1.6 2.1-3-1.6-2.4-3-2.1c-.6.1-1.1.4-1.5.8l-8.4-6.1c.5-.8.8-1.9.6-2.9-.1-.5-.3-1-.6-1.4l9.8-7.2c.7.8 1.8 1.2 2.9 1 1.7-.3 2.8-2 2.5-3.7s-2-2.8-3.7-2.5-2.8 2-2.5 3.7c.1.4.2.7.4 1l-9.8 7.2c-.5-.6-1.3-1.1-2.1-1.3l1-5h.5c1.1-.2 1.8-1.2 1.6-2.3s-1.2-1.8-2.3-1.6-1.8 1.2-1.6 2.3c.1.7.6 1.3 1.3 1.5l-1 5c-.4-.1-.8 0-1.3 0-1.9.4-3.3 2-3.4 3.8l-7.4.1v-.2c-.3-1.4-1.6-2.4-3-2.1-1.3.3-2.3 1.7-2 3.1zm-444.6-55.2c0 .5 0 1.1.2 1.6l-16.1 6.2c-.5-1.1-1.3-2-2.4-2.6l3.2-6.5c.2.1.4.1.6.1 1.5.1 2.9-1 3-2.6.1-1.5-1-2.9-2.6-3-1.5-.1-2.9 1-3 2.6-.1 1 .4 2 1.2 2.5l-3.2 6.5c-.5-.2-1.1-.4-1.7-.4-2.7-.2-5.2 1.5-6 4l-10.2-2.6v-.2c.2-2-1.4-3.8-3.4-4s-3.8 1.4-4 3.4 1.4 3.8 3.4 4c1.7.1 3.2-.9 3.8-2.4l10.2 2.6c0 .2-.1.4-.1.6-.2 2.4 1.1 4.6 3.2 5.7l-8.6 20.3c-.3-.1-.7-.2-1-.2-2.5-.2-4.6 1.6-4.8 4.1s1.6 4.6 4.1 4.8 4.6-1.6 4.8-4.1c.1-1.8-.8-3.5-2.3-4.3l8.6-20.3c.5.2.9.3 1.5.3 1.4.1 2.7-.3 3.8-1l9.3 11.4c-.6.6-1 1.4-1.1 2.3-.2 2 1.4 3.8 3.4 4s3.8-1.4 4-3.4-1.4-3.8-3.4-4c-.8-.1-1.6.2-2.3.6l-9.3-11.4c1-1 1.7-2.3 1.8-3.8.1-.8 0-1.5-.2-2.2l16.1-6.2c.7 1.4 2 2.3 3.7 2.5 2.5.2 4.6-1.6 4.8-4.1s-1.6-4.6-4.1-4.8-4.7 1.6-4.9 4zm64.3-35.5c-1-1-2.3-1.7-3.9-1.8-.8 0-1.5.1-2.2.3l-6.6-16c1.3-.7 2.3-2.1 2.4-3.7.1-2.5-1.7-4.6-4.2-4.7s-4.6 1.7-4.7 4.2 1.7 4.6 4.2 4.7c.5 0 1.1 0 1.6-.2l6.6 16c-1.1.5-1.9 1.4-2.5 2.4l-6.6-3.1c.1-.2.1-.4.1-.6.1-1.5-1.1-2.9-2.6-3s-2.9 1.1-3 2.6 1.1 2.9 2.6 3c1 .1 2-.5 2.5-1.3l6.6 3.1c-.2.5-.3 1.1-.4 1.8-.2 2.7 1.6 5.2 4.1 5.9l-2.4 10.2h-.2c-2-.1-3.8 1.4-3.9 3.5-.1 2 1.4 3.8 3.5 3.9 2 .1 3.8-1.4 3.9-3.5.1-1.7-1-3.2-2.5-3.7l2.4-10.2c.2 0 .4.1.6.1 2.4.1 4.6-1.2 5.6-3.3l20.4 8.2c-.1.3-.2.7-.2 1-.1 2.5 1.7 4.6 4.2 4.7s4.6-1.7 4.7-4.2-1.7-4.6-4.2-4.7c-1.8-.1-3.5.9-4.2 2.4l-20.4-8.2.3-1.5c.1-1.4-.3-2.7-1.1-3.8l11.2-9.5c.6.6 1.4 1 2.3 1 2 .1 3.8-1.4 3.9-3.5.1-2-1.4-3.8-3.5-3.9-2-.1-3.8 1.4-3.9 3.5 0 .8.2 1.6.6 2.3zm-64.5 81c-.1 1.5 1.1 2.9 2.6 3 1 .1 2-.5 2.5-1.3l6.6 3.1c-.2.5-.3 1.1-.4 1.8-.2 2.7 1.6 5.2 4.1 5.9l-2.4 10.2h-.2c-2-.1-3.8 1.4-3.9 3.5-.1 2 1.4 3.8 3.5 3.9 2 .1 3.8-1.4 3.9-3.5.1-1.7-1-3.2-2.5-3.7l2.4-10.2c.2 0 .4.1.6.1 2.4.1 4.6-1.2 5.6-3.3l20.4 8.2c-.1.3-.2.7-.2 1-.1 2.5 1.7 4.6 4.2 4.7s4.6-1.7 4.7-4.2-1.7-4.6-4.2-4.7c-1.8-.1-3.5.9-4.2 2.4l-20.4-8.2.3-1.5c.1-1.4-.3-2.7-1.1-3.8l11.2-9.5c.6.6 1.4 1 2.3 1 2 .1 3.8-1.4 3.9-3.5.1-2-1.4-3.8-3.5-3.9s-3.8 1.4-3.9 3.5c0 .8.2 1.6.6 2.3l-11.2 9.5c-1-1-2.3-1.7-3.9-1.8-.8 0-1.5.1-2.2.3l-6.6-16c1.3-.7 2.3-2.1 2.4-3.7.1-2.5-1.7-4.6-4.2-4.7s-4.6 1.7-4.7 4.2 1.7 4.6 4.2 4.7c.5 0 1.1 0 1.6-.2l6.6 16c-1.1.5-1.9 1.4-2.5 2.4l-6.6-3.1c.1-.2.1-.4.1-.6.1-1.5-1.1-2.9-2.6-3-1.5 0-2.9 1.2-2.9 2.7zm52.2 13.2c1.6.6 3.5-.2 4.1-1.8.1-.4.2-.7.2-1.1l12.1-1.1c.1.8.5 1.6 1.1 2.2l-3.4 3.8c-.1-.1-.3-.2-.4-.2-1-.4-2.2.1-2.5 1.2s.1 2.2 1.2 2.5c1 .4 2.2-.1 2.5-1.2.3-.7.1-1.4-.3-1.9l3.4-3.8c.3.3.7.5 1.1.6 1.8.7 3.8 0 4.9-1.5l6.4 3.7s0 .1-.1.1c-.5 1.4.2 2.9 1.5 3.4 1.4.5 2.9-.2 3.4-1.5.5-1.4-.2-2.9-1.5-3.4-1.1-.4-2.3 0-3 .9l-6.4-3.7c.1-.1.1-.2.2-.4.6-1.6.1-3.4-1-4.5l9.8-12c.2.1.4.2.7.3 1.6.6 3.5-.2 4.1-1.8s-.2-3.5-1.8-4.1-3.5.2-4.1 1.8c-.5 1.2-.1 2.5.7 3.4l-9.8 12c-.3-.2-.6-.4-.9-.5-.9-.4-1.9-.3-2.8 0l-4-9.6c.5-.3.9-.8 1.2-1.4.5-1.4-.2-2.9-1.5-3.4-1.4-.5-2.9.2-3.4 1.5-.5 1.4.2 2.9 1.5 3.4.6.2 1.1.2 1.7.1l4 9.6c-.9.5-1.6 1.2-2 2.2-.2.5-.3 1-.3 1.5l-12.1 1.1c-.2-1.1-.9-2-2-2.4-1.6-.6-3.5.2-4.1 1.8-.8 1.8 0 3.6 1.6 4.2zm185.1-94.4c.8-.7.8-2 .1-2.8s-2-.8-2.8-.1c-.5.5-.7 1.2-.6 1.9l-4.7 1.9c-.2-.4-.4-.7-.7-1-1.3-1.4-3.4-1.7-5-.8l-4.1-6.2.1-.1c1-1 1.1-2.6.1-3.7s-2.7-1.1-3.8-.1c-1 1-1.1 2.6-.1 3.7.8.9 2.1 1 3.1.5l4.1 6.2-.3.3c-1.2 1.2-1.6 2.9-1 4.5l-14.1 6.5c-.1-.2-.3-.4-.4-.6-1.2-1.3-3.2-1.3-4.5-.1s-1.3 3.2-.1 4.5 3.2 1.3 4.5.1c.9-.9 1.2-2.2.8-3.3l14.1-6.5c.2.3.4.6.6.8.7.7 1.6 1.1 2.5 1.3l-.6 10.2c-.6 0-1.2.3-1.6.7-1 1-1.1 2.6-.1 3.7 1 1 2.6 1.1 3.7.1 1-1 1.1-2.6.1-3.7-.4-.4-.9-.7-1.5-.8l.6-10.4c1 0 2-.4 2.8-1.1.4-.4.7-.8.9-1.3l11.4 4.4c-.3 1 0 2.2.7 3 1.2 1.3 3.2 1.3 4.5.1s1.3-3.2.1-4.5-3.2-1.3-4.5-.1c-.3.3-.5.6-.7.9l-11.4-4.2c.2-.8.2-1.7 0-2.5l4.7-1.9c.1.1.2.3.3.4.7.8 2 .8 2.8.1zm-129.2-21.8c1.3-1.2 1.3-3.2.1-4.5s-3.2-1.3-4.5-.1c-.3.3-.5.6-.7.9l-11.4-4.4c.2-.8.2-1.7 0-2.5l4.7-1.9c.1.1.2.3.3.4.7.8 2 .8 2.8.1s.8-2 .1-2.8-2-.8-2.8-.1c-.5.5-.7 1.2-.6 1.9l-4.7 1.9c-.2-.4-.4-.7-.7-1-1.3-1.4-3.4-1.7-5-.8l-4.1-6.2.1-.1c1-1 1.1-2.6.1-3.7-1-1-2.6-1.1-3.7-.1-1 1-1.1 2.6-.1 3.7.8.9 2.1 1 3.1.5l4.1 6.2-.3.3c-1.2 1.2-1.6 2.9-1 4.5l-14.1 6.6c-.1-.2-.3-.4-.4-.6-1.2-1.3-3.2-1.3-4.5-.1s-1.3 3.2-.1 4.5 3.2 1.3 4.5.1c.9-.9 1.2-2.2.8-3.3l14.1-6.5c.2.3.4.6.6.8.7.7 1.6 1.1 2.5 1.3l-.6 10.4c-.6 0-1.2.3-1.6.7-1 1-1.1 2.6-.1 3.7s2.6 1.1 3.7.1c1-1 1.1-2.6.1-3.7-.4-.4-.9-.7-1.5-.8l.6-10.4c1 0 2-.4 2.8-1.1.4-.4.7-.8.9-1.3l11.4 4.4c-.3 1 0 2.2.7 3 1.1 1.2 3.1 1.2 4.4 0zm252.8 75.6c-1.3 1.2-1.3 3.2-.1 4.5s3.2 1.3 4.5.1c.9-.9 1.2-2.2.8-3.3l14.1-6.5c.2.3.4.6.6.8.7.7 1.6 1.1 2.5 1.3l-.6 10.3c-.6 0-1.2.3-1.6.7-1 1-1.1 2.6-.1 3.7 1 1 2.6 1.1 3.7.1 1-1 1.1-2.6.1-3.7-.4-.4-.9-.7-1.5-.8l.6-10.4c1 0 2-.4 2.8-1.1.4-.4.7-.8.9-1.3l11.4 4.4c-.3 1 0 2.2.7 3 1.2 1.3 3.2 1.3 4.5.1s1.3-3.2.1-4.5-3.2-1.3-4.5-.1c-.3.3-.5.6-.7.9l-11.4-4.4c.2-.8.2-1.7 0-2.5l4.7-1.9c.1.1.2.3.3.4.7.8 2 .8 2.8.1s.8-2 .1-2.8-2-.8-2.8-.1c-.5.5-.7 1.2-.6 1.9l-4.7 1.9c-.2-.4-.4-.7-.7-1-1.3-1.4-3.4-1.7-5-.8l-4.1-6.2.1-.1c1-1 1.1-2.6.1-3.7-1-1-2.6-1.1-3.7-.1-1 1-1.1 2.6-.1 3.7.8.9 2.1 1 3.1.5l4.1 6.2-.3.3c-1.2 1.2-1.6 2.9-1 4.5l-14.1 6.5c-.1-.2-.3-.4-.4-.6-1.3-1.2-3.3-1.2-4.6 0zm-161.2-21.2c-.3-.2-.6-.4-.9-.5-.9-.4-1.9-.3-2.8 0l-4-9.6c.5-.3.9-.8 1.2-1.4.5-1.4-.2-2.9-1.5-3.4-1.4-.5-2.9.2-3.4 1.5-.5 1.4.2 2.9 1.5 3.4.6.2 1.1.2 1.7.1l4 9.6c-.9.5-1.6 1.2-2 2.2-.2.5-.3 1-.3 1.5l-12.1 1.1c-.2-1.1-.9-2-2-2.4-1.6-.6-3.5.2-4.1 1.8s.2 3.5 1.8 4.1 3.5-.2 4.1-1.8c.1-.4.2-.7.2-1.1l12.1-1.1c.1.8.5 1.6 1.1 2.2l-3.4 3.8c-.1-.1-.3-.2-.4-.2-1-.4-2.2.1-2.5 1.2-.4 1 .1 2.2 1.2 2.5 1 .4 2.2-.1 2.5-1.2.3-.7.1-1.4-.3-1.9l3.4-3.8c.3.3.7.5 1.1.6 1.8.7 3.8 0 4.9-1.5l6.4 3.7s0 .1-.1.1c-.5 1.4.2 2.9 1.5 3.4 1.4.5 2.9-.2 3.4-1.5.5-1.4-.2-2.9-1.5-3.4-1.1-.4-2.3 0-3 .9l-6.4-3.7c.1-.1.1-.2.2-.4.6-1.6.1-3.4-1-4.5l9.8-12c.2.1.4.2.7.3 1.6.6 3.5-.2 4.1-1.8s-.2-3.5-1.8-4.1-3.5.2-4.1 1.8c-.5 1.2-.1 2.5.7 3.4zm-45.1-67.3c-.1-1.7-1.6-3-3.4-2.9-1.7.1-3 1.6-2.9 3.4.1 1.3.9 2.3 2.1 2.7l-3.9 15c-.3-.1-.7-.1-1-.1-1 .1-1.9.5-2.5 1.1l-7.7-7c.3-.5.5-1.1.5-1.7-.1-1.4-1.4-2.5-2.8-2.4s-2.5 1.4-2.4 2.8 1.4 2.5 2.8 2.4c.6 0 1.1-.3 1.5-.6l7.7 7c-.6.8-1 1.8-.9 2.9 0 .5.2 1 .4 1.5l-10.6 6.1c-.6-.9-1.7-1.4-2.8-1.3-1.7.1-3 1.6-2.9 3.4.1 1.7 1.6 3 3.4 2.9 1.7-.1 3-1.6 2.9-3.4 0-.4-.1-.7-.3-1.1l10.6-6.1c.5.7 1.1 1.2 1.9 1.5l-1.5 4.9h-.5c-1.1.1-1.9 1-1.8 2.1s1 1.9 2.1 1.8 1.9-1 1.8-2.1c-.1-.7-.5-1.3-1.1-1.6l1.5-4.9c.4.1.8.1 1.3.1 1.9-.1 3.5-1.6 3.8-3.4l7.4.7v.2c.1 1.4 1.4 2.5 2.8 2.4s2.5-1.4 2.4-2.8-1.4-2.5-2.8-2.4c-1.2.1-2.1 1-2.4 2.1l-7.4-.7v-.4c-.1-1.7-1.3-3.1-2.8-3.6l3.9-15.1h.7c1.7-.2 3-1.7 2.9-3.4zm-114.2 1.4c.2-1.7-1-3.3-2.7-3.6-1.7-.2-3.3 1-3.6 2.7-.1.4 0 .8 0 1.1l-11.6 3.7c-.3-.8-.9-1.4-1.6-1.9l2.5-4.4c.1.1.3.1.4.1 1.1.1 2.1-.6 2.2-1.7s-.6-2.1-1.7-2.2-2.1.6-2.2 1.7c-.1.7.2 1.4.7 1.8l-2.5 4.4c-.4-.2-.8-.3-1.2-.4-1.9-.3-3.7.8-4.4 2.6l-7.1-2.2v-.2c.2-1.4-.8-2.8-2.2-2.9s-2.8.8-2.9 2.2c-.2 1.4.8 2.8 2.2 2.9 1.2.2 2.3-.5 2.7-1.5l7.1 2.2c0 .1-.1.3-.1.4-.2 1.7.6 3.3 2 4.1l-6.9 13.9c-.2-.1-.5-.2-.7-.2-1.7-.2-3.3 1-3.6 2.7-.2 1.7 1 3.3 2.7 3.6 1.7.2 3.3-1 3.6-2.7.2-1.3-.4-2.5-1.5-3.1l6.9-13.9c.3.1.7.2 1 .3 1 .1 1.9-.1 2.7-.6l6 8.4c-.4.4-.8.9-.8 1.6-.2 1.4.8 2.8 2.2 2.9 1.4.2 2.8-.8 2.9-2.2.2-1.4-.8-2.8-2.2-2.9-.6-.1-1.2 0-1.6.3l-6-8.4c.8-.6 1.3-1.5 1.5-2.6.1-.5 0-1.1-.1-1.5l11.6-3.7c.4 1 1.3 1.7 2.5 1.9 1.9.2 3.5-1 3.8-2.7zm78.1 16.5c.6-1.6-.2-3.5-1.8-4.1s-3.5.2-4.1 1.8c-.5 1.2-.1 2.5.7 3.4l-9.8 12c-.3-.2-.6-.4-.9-.5-.9-.4-1.9-.3-2.8 0l-4-9.6c.5-.3.9-.8 1.2-1.4.5-1.4-.2-2.9-1.5-3.4s-2.9.2-3.4 1.5c-.5 1.4.2 2.9 1.5 3.4.6.2 1.1.2 1.7.1l4 9.6c-.9.5-1.6 1.2-2 2.2-.2.5-.3 1-.3 1.5l-12.1 1.1c-.2-1.1-.9-2-2-2.4-1.6-.6-3.5.2-4.1 1.8s.2 3.5 1.8 4.1 3.5-.2 4.1-1.8c.1-.4.2-.7.2-1.1l12.1-1.1c.1.8.5 1.6 1.1 2.2l-3.4 3.8c-.1-.1-.3-.2-.4-.2-1-.4-2.2.1-2.5 1.2-.4 1 .1 2.2 1.2 2.5 1 .4 2.2-.1 2.5-1.2.3-.7.1-1.4-.3-1.9l3.4-3.8c.3.3.7.5 1.1.6 1.8.7 3.8 0 4.9-1.5l6.4 3.7s0 .1-.1.1c-.5 1.4.2 2.9 1.5 3.4 1.4.5 2.9-.2 3.4-1.5.5-1.4-.2-2.9-1.5-3.4-1.1-.4-2.3 0-3 .9l-6.4-3.7c.1-.1.1-.2.2-.4.6-1.6.1-3.4-1-4.5l9.8-12c.2.1.4.2.7.3 1.5.8 3.3-.1 3.9-1.7zm341 44.9c.6-1.6-.2-3.5-1.8-4.1s-3.5.2-4.1 1.8c-.5 1.2-.1 2.5.7 3.4l-9.8 12c-.3-.2-.6-.4-.9-.5-.9-.4-1.9-.3-2.8 0l-4-9.6c.5-.3.9-.8 1.2-1.4.5-1.4-.2-2.9-1.5-3.4-1.4-.5-2.9.2-3.4 1.5-.5 1.4.2 2.9 1.5 3.4.6.2 1.1.2 1.7.1l4 9.6c-.9.5-1.6 1.2-2 2.2-.2.5-.3 1-.3 1.5l-12.1 1.1c-.2-1.1-.9-2-2-2.4-1.6-.6-3.5.2-4.1 1.8s.2 3.5 1.8 4.1 3.5-.2 4.1-1.8c.1-.4.2-.7.2-1.1l12.1-1.1c.1.8.5 1.6 1.1 2.2l-3.4 3.8c-.1-.1-.3-.2-.4-.2-1-.4-2.2.1-2.5 1.2-.4 1 .1 2.2 1.2 2.5 1 .4 2.2-.1 2.5-1.2.3-.7.1-1.4-.3-1.9l3.4-3.8c.3.3.7.5 1.1.6 1.8.7 3.8 0 4.9-1.5l6.4 3.7s0 .1-.1.1c-.5 1.4.2 2.9 1.5 3.4 1.4.5 2.9-.2 3.4-1.5s-.2-2.9-1.5-3.4c-1.1-.4-2.3 0-3 .9l-6.4-3.7c.1-.1.1-.2.2-.4.6-1.6.1-3.4-1-4.5l9.8-12c.2.1.4.2.7.3 1.5.7 3.3-.1 3.9-1.7zm-421.4 5.7c-.3 2 1.1 3.9 3.1 4.2.8.1 1.6 0 2.3-.4l8.3 12.1c-1.1.9-1.9 2.2-2.1 3.7-.1.8-.1 1.5.1 2.2l-16.6 4.9c-.6-1.4-1.8-2.5-3.5-2.8-2.4-.4-4.7 1.3-5.1 3.7s1.3 4.7 3.7 5.1 4.7-1.3 5.1-3.7c.1-.5.1-1.1 0-1.6l16.6-4.9c.4 1.1 1.2 2.1 2.1 2.7l-3.7 6.2c-.2-.1-.4-.1-.6-.2-1.5-.2-3 .8-3.2 2.3s.8 3 2.3 3.2 3-.8 3.2-2.3c.2-1-.3-2-1-2.6l3.7-6.2c.5.3 1.1.5 1.7.5 2.7.4 5.3-1.1 6.3-3.5l10 3.4v.2c-.3 2 1.1 3.9 3.1 4.2s3.9-1.1 4.2-3.1-1.1-3.9-3.1-4.2c-1.7-.3-3.3.6-3.9 2.1l-10-3.4c0-.2.1-.4.1-.6.4-2.4-.8-4.7-2.7-5.9l10.2-19.5c.3.1.7.2 1 .3 2.4.4 4.7-1.3 5.1-3.7s-1.3-4.7-3.7-5.1-4.7 1.3-5.1 3.7c-.3 1.8.6 3.5 2 4.5l-10.2 19.7c-.4-.2-.9-.3-1.4-.4-1.4-.2-2.8.1-3.9.7l-8.3-12.1c.6-.6 1.1-1.3 1.2-2.2.3-2-1.1-3.9-3.1-4.2-2-.4-3.9.9-4.2 3zm48.9 26.8 14.3-3.5c.4 1.3 1.3 2.5 2.7 3.3.7.4 1.4.6 2.1.7l-1.3 17.2c-1.5 0-3 .8-3.8 2.2-1.2 2.1-.5 4.9 1.7 6.1 2.1 1.2 4.9.5 6.1-1.7 1.2-2.1.5-4.9-1.7-6.1-.5-.3-1-.4-1.5-.5l1.3-17.2c1.2 0 2.3-.4 3.3-1l4.5 5.7c-.1.2-.3.3-.4.5-.8 1.3-.3 3.1 1 3.8 1.3.8 3.1.3 3.8-1 .8-1.3.3-3.1-1-3.8-.9-.5-2-.5-2.8 0l-4.5-5.7c.4-.4.8-.9 1.1-1.4 1.4-2.4.9-5.3-1-7.1l6.7-8.1c.1 0 .1.1.2.1 1.8 1 4 .4 5.1-1.4 1-1.8.4-4-1.4-5.1-1.8-1-4-.4-5.1 1.4-.8 1.5-.6 3.3.6 4.4l-6.7 8.1c-.2-.1-.3-.2-.5-.3-2.1-1.2-4.7-1-6.5.4l-14.6-16.5c.2-.2.4-.5.6-.8 1.2-2.1.5-4.9-1.7-6.1-2.1-1.2-4.9-.5-6.1 1.7-1.2 2.1-.5 4.9 1.7 6.1 1.6.9 3.5.7 4.9-.3l14.6 16.5c-.3.3-.6.7-.9 1.2-.7 1.2-.9 2.6-.7 3.9l-14.3 3.5c-.3-.8-.8-1.5-1.6-1.9-1.8-1-4-.4-5.1 1.4-1 1.8-.4 4 1.4 5.1 1.8 1 4 .4 5.1-1.4.3-.8.5-1.6.4-2.4zm111.9-74.5c1-1.8.4-4-1.4-5.1-1.8-1-4-.4-5.1 1.4-.8 1.5-.6 3.3.6 4.4l-6.7 8.2c-.2-.1-.3-.2-.5-.3-2.1-1.2-4.7-1-6.5.4l-14.6-16.5c.2-.2.4-.5.6-.8 1.2-2.1.5-4.9-1.7-6.1-2.1-1.2-4.9-.5-6.1 1.7-1.2 2.1-.5 4.9 1.7 6.1 1.6.9 3.5.7 4.9-.3l14.6 16.5c-.3.3-.6.7-.9 1.2-.7 1.2-.9 2.6-.7 3.9l-14.3 3.5c-.3-.8-.8-1.5-1.6-1.9-1.8-1-4-.4-5.1 1.4-1 1.8-.4 4 1.4 5.1s4 .4 5.1-1.4c.4-.7.6-1.5.5-2.3l14.3-3.5c.4 1.3 1.3 2.5 2.7 3.3.7.4 1.4.6 2.1.7l-1.3 17.2c-1.5 0-3 .8-3.8 2.2-1.2 2.1-.5 4.9 1.7 6.1 2.1 1.2 4.9.5 6.1-1.7 1.2-2.1.5-4.9-1.7-6.1-.5-.3-1-.4-1.5-.5l1.3-17.2c1.2 0 2.3-.4 3.3-1l4.5 5.7c-.1.2-.3.3-.4.5-.8 1.3-.3 3.1 1 3.8 1.3.8 3.1.3 3.8-1 .8-1.3.3-3.1-1-3.8-.9-.5-2-.5-2.8 0l-4.5-5.7c.4-.4.8-.9 1.1-1.4 1.4-2.4.9-5.3-1-7.1l6.7-8.1c.1 0 .1.1.2.1 1.7.8 4 .2 5-1.6zm231.4 22.9c1-1.8.4-4-1.4-5.1-1.8-1-4-.4-5.1 1.4-.8 1.5-.6 3.3.6 4.4l-6.7 8.1c-.2-.1-.3-.2-.5-.3-2.1-1.2-4.7-1-6.5.4l-14.6-16.5c.2-.2.4-.5.6-.8 1.2-2.1.5-4.9-1.7-6.1-2.1-1.2-4.9-.5-6.1 1.7-1.2 2.1-.5 4.9 1.7 6.1 1.6.9 3.5.7 4.9-.3l14.6 16.5c-.3.3-.6.7-.9 1.2-.7 1.2-.9 2.6-.7 3.9l-14.3 3.4c-.3-.8-.8-1.5-1.6-1.9-1.8-1-4-.4-5.1 1.4s-.4 4 1.4 5.1c1.8 1 4 .4 5.1-1.4.4-.7.6-1.5.5-2.3l14.3-3.5c.4 1.3 1.3 2.5 2.7 3.3.7.4 1.4.6 2.1.7l-1.3 17.2c-1.5 0-3 .8-3.8 2.2-1.2 2.1-.5 4.9 1.7 6.1 2.1 1.2 4.9.5 6.1-1.7 1.2-2.1.5-4.9-1.7-6.1-.5-.3-1-.4-1.5-.5l1.3-17.2c1.2 0 2.3-.4 3.3-1l4.5 5.7c-.1.2-.3.3-.4.5-.8 1.3-.3 3.1 1 3.8 1.3.8 3.1.3 3.8-1 .8-1.3.3-3.1-1-3.8-.9-.5-2-.5-2.8 0l-4.5-5.7c.4-.4.8-.9 1.1-1.4 1.4-2.4.9-5.3-1-7.1l6.7-8.1c.1 0 .1.1.2.1 1.7.9 4 .3 5-1.4zm-297.8 41.5c-1.3 1.2-1.4 3.2-.2 4.5s3.2 1.4 4.5.2c.9-.9 1.2-2.2.8-3.3l14.2-6.4.6.9c.7.7 1.6 1.2 2.5 1.3l-.7 10.4c-.6 0-1.2.3-1.7.7-1.1 1-1.1 2.6-.1 3.7s2.6 1.1 3.7.1 1.1-2.6.1-3.7c-.4-.4-.9-.7-1.5-.8l.7-10.4c1 0 2-.4 2.8-1.1.4-.4.7-.8.9-1.2l11.3 4.5c-.3 1-.1 2.2.7 3 1.2 1.3 3.2 1.4 4.5.2s1.4-3.2.2-4.5-3.2-1.4-4.5-.2c-.3.3-.5.6-.7.9l-11.3-4.5c.3-.8.3-1.7 0-2.5l4.8-1.8c.1.1.2.3.3.4.7.8 2 .8 2.8.1s.8-2 .1-2.8-2-.8-2.8-.1c-.5.5-.7 1.2-.6 1.9l-4.8 1.8c-.2-.4-.4-.7-.7-1-1.3-1.4-3.4-1.7-5-.8l-4-6.2.1-.1c1.1-1 1.1-2.6.1-3.7s-2.6-1.1-3.7-.1-1.1 2.6-.1 3.7c.8.9 2.1 1.1 3.1.6l4 6.2-.3.3c-1.3 1.2-1.6 2.9-1.1 4.4l-14.2 6.4c-.1-.2-.3-.4-.4-.6-1.1-1.5-3.1-1.6-4.4-.4zm393.2 8.6c1.3-1.2 1.4-3.2.2-4.5s-3.2-1.4-4.5-.2c-.3.3-.5.6-.7.9l-11.3-4.5c.3-.8.3-1.7 0-2.5l4.8-1.8c.1.1.2.3.3.4.7.8 2 .8 2.8.1s.8-2 .1-2.8-2-.8-2.8-.1c-.5.5-.7 1.2-.6 1.9l-4.8 1.8c-.2-.4-.4-.7-.7-1-1.3-1.4-3.4-1.7-5-.8l-4-6.2.1-.1c1.1-1 1.1-2.6.1-3.7s-2.6-1.1-3.7-.1-1.1 2.6-.1 3.7c.8.9 2.1 1.1 3.1.6l4 6.2-.3.3c-1.3 1.2-1.6 2.9-1.1 4.4l-14.2 6.4c-.1-.2-.3-.4-.4-.6-1.2-1.3-3.2-1.4-4.5-.2s-1.4 3.2-.2 4.5 3.2 1.4 4.5.2c.9-.9 1.2-2.2.8-3.3l14.2-6.4.6.9c.7.7 1.6 1.2 2.5 1.3l-.7 10.4c-.6 0-1.2.3-1.7.7-1.1 1-1.1 2.6-.1 3.7s2.6 1.1 3.7.1 1.1-2.6.1-3.7c-.4-.4-.9-.7-1.5-.8l.7-10.4c1 0 2-.4 2.8-1.1.4-.4.7-.8.9-1.2l11.3 4.5c-.3 1-.1 2.2.7 3 1.3 1.1 3.3 1.2 4.6 0zm-214.1-57.3c.8-.7.8-2 .1-2.8s-2-.8-2.8-.1c-.5.5-.7 1.2-.6 1.9l-4.8 1.8c-.2-.4-.4-.7-.7-1-1.3-1.4-3.4-1.7-5-.8l-4-6.2.1-.1c1.1-1 1.1-2.6.1-3.7s-2.6-1.1-3.7-.1-1.1 2.6-.1 3.7c.8.9 2.1 1.1 3.1.6l4 6.2-.3.3c-1.3 1.2-1.6 2.9-1.1 4.4l-14.2 6.4c-.1-.2-.3-.4-.4-.6-1.2-1.3-3.2-1.4-4.5-.2s-1.4 3.2-.2 4.5 3.2 1.4 4.5.2c.9-.9 1.2-2.2.8-3.3l14.2-6.4.6.9c.7.7 1.6 1.2 2.5 1.3l-.7 10.4c-.6 0-1.2.3-1.7.7-1.1 1-1.1 2.6-.1 3.7s2.6 1.1 3.7.1 1.1-2.6.1-3.7c-.4-.4-.9-.7-1.5-.8l.7-10.4c1 0 2-.4 2.8-1.1.4-.4.7-.8.9-1.2l11.3 4.5c-.3 1-.1 2.2.7 3 1.2 1.3 3.2 1.4 4.5.2s1.4-3.2.2-4.5-3.2-1.4-4.5-.2c-.3.3-.5.6-.7.9l-11.3-4.5c.3-.8.3-1.7 0-2.5l4.8-1.8c.1.1.2.3.3.4.8.6 2.1.7 2.9-.1zm-74.2-11c.7-1.6-.1-3.5-1.7-4.1-1.2-.5-2.5-.2-3.4.6l-11.7-10.3c.2-.3.4-.6.5-.9.4-.9.4-1.9.1-2.8l9.7-3.7c.3.5.7 1 1.3 1.2 1.3.6 2.9-.1 3.4-1.4.6-1.3-.1-2.9-1.4-3.4-1.3-.6-2.9.1-3.4 1.4-.2.5-.3 1.1-.1 1.7l-9.7 3.7c-.4-.9-1.2-1.7-2.2-2.1-.5-.2-1-.3-1.5-.3l-.6-12.2c1.1-.2 2-.8 2.5-1.9.7-1.6-.1-3.5-1.7-4.1-1.6-.7-3.5.1-4.1 1.7-.7 1.6.1 3.5 1.7 4.1.4.1.7.2 1.1.2l.6 12.2c-.8.1-1.6.5-2.2 1l-3.7-3.6c.1-.1.2-.3.2-.4.4-1-.1-2.2-1.1-2.6s-2.2.1-2.6 1.1.1 2.2 1.1 2.6c.7.3 1.4.2 2-.2l3.7 3.6c-.3.3-.5.7-.7 1.1-.7 1.8-.1 3.8 1.4 4.9l-4 6.3s-.1 0-.1-.1c-1.3-.6-2.9.1-3.4 1.4-.6 1.3.1 2.9 1.4 3.4 1.3.6 2.9-.1 3.4-1.4.5-1.1.1-2.3-.8-3l4-6.3c.1.1.2.1.4.2 1.6.7 3.3.3 4.5-.9l11.7 10.3c-.1.2-.3.4-.4.6-.7 1.6.1 3.5 1.7 4.1s3.4-.1 4.1-1.7zm249.2 57.6c.6-1.3-.1-2.9-1.4-3.4s-2.9.1-3.4 1.4c-.2.5-.3 1.1-.1 1.7l-9.7 3.7c-.4-.9-1.2-1.7-2.2-2.1-.5-.2-1-.3-1.5-.3l-.6-12.2c1.1-.2 2-.8 2.5-1.9.7-1.6-.1-3.5-1.7-4.1-1.6-.7-3.5.1-4.1 1.7-.7 1.6.1 3.5 1.7 4.1.4.1.7.2 1.1.2l.6 12.2c-.8.1-1.6.5-2.2 1l-3.7-3.6c.1-.1.2-.3.2-.4.4-1-.1-2.2-1.1-2.6s-2.2.1-2.6 1.1.1 2.2 1.1 2.6c.7.3 1.4.2 2-.2l3.7 3.6c-.3.3-.5.7-.7 1.1-.7 1.8-.1 3.8 1.4 4.9l-4 6.3s-.1 0-.1-.1c-1.3-.6-2.9.1-3.4 1.4-.6 1.3.1 2.9 1.4 3.4 1.3.6 2.9-.1 3.4-1.4.5-1.1.1-2.3-.8-3l4-6.3c.1.1.2.1.4.2 1.6.7 3.3.3 4.5-.9l11.7 10.3c-.1.2-.3.4-.4.6-.7 1.6.1 3.5 1.7 4.1 1.6.7 3.5-.1 4.1-1.7s-.1-3.5-1.7-4.1c-1.2-.5-2.5-.2-3.4.6l-11.8-10.3c.2-.3.4-.6.5-.9.4-.9.4-1.9.1-2.8l9.7-3.7c.3.5.7 1 1.3 1.2 1.4.6 2.9-.1 3.5-1.4zm-200.6-48.7c1.3-1.2 1.4-3.2.2-4.5s-3.2-1.4-4.5-.2c-.3.3-.5.6-.7.9l-11.3-4.5c.3-.8.3-1.7 0-2.5l4.8-1.8c.1.1.2.3.3.4.7.8 2 .8 2.8.1s.8-2 .1-2.8-2-.8-2.8-.1c-.5.5-.7 1.2-.6 1.9l-4.8 1.9c-.2-.4-.4-.7-.7-1-1.3-1.4-3.4-1.7-5-.8l-4-6.2.1-.1c1.1-1 1.1-2.6.1-3.7s-2.6-1.1-3.7-.1-1.1 2.6-.1 3.7c.8.9 2.1 1.1 3.1.6l4 6.2-.3.3c-1.3 1.2-1.6 2.9-1.1 4.4l-14.2 6.2c-.1-.2-.3-.4-.4-.6-1.2-1.3-3.2-1.4-4.5-.2s-1.4 3.2-.2 4.5 3.2 1.4 4.5.2c.9-.9 1.2-2.2.8-3.3l14.2-6.4.6.9c.7.7 1.6 1.2 2.5 1.3l-.7 10.3c-.6 0-1.2.3-1.7.7-1.1 1-1.1 2.6-.1 3.7s2.6 1.1 3.7.1 1.1-2.6.1-3.7c-.4-.4-.9-.7-1.5-.8l.7-10.4c1 0 2-.4 2.8-1.1.4-.4.7-.8.9-1.2l11.3 4.5c-.3 1-.1 2.2.7 3 1.3 1.3 3.3 1.3 4.6.2zm-36.3 68.2c-1.3 1.2-1.4 3.2-.2 4.5s3.2 1.4 4.5.2c.9-.9 1.2-2.2.8-3.3l14.2-6.4.6.9c.7.7 1.6 1.2 2.5 1.3l-.7 10.4c-.6 0-1.2.3-1.7.7-1.1 1-1.1 2.6-.1 3.7s2.6 1.1 3.7.1 1.1-2.6.1-3.7c-.4-.4-.9-.7-1.5-.8l.7-10.4c1 0 2-.4 2.8-1.1.4-.4.7-.8.9-1.2l11.3 4.5c-.3 1-.1 2.2.7 3 1.2 1.3 3.2 1.4 4.5.2s1.4-3.2.2-4.5-3.2-1.4-4.5-.2c-.3.3-.5.6-.7.9l-11.3-4.5c.3-.8.3-1.7 0-2.5l4.8-1.8c.1.1.2.3.3.4.7.8 2 .8 2.8.1s.8-2 .1-2.8-2-.8-2.8-.1c-.5.5-.7 1.2-.6 1.9l-4.8 1.8c-.2-.4-.4-.7-.7-1-1.3-1.4-3.4-1.7-5-.8l-4-6.2.1-.1c1.1-1 1.1-2.6.1-3.7s-2.6-1.1-3.7-.1-1.1 2.6-.1 3.7c.8.9 2.1 1.1 3.1.6l4 6.2-.3.3c-1.3 1.2-1.6 2.9-1.1 4.4l-14.2 6.4c-.1-.2-.3-.4-.4-.6-1.1-1.5-3.1-1.6-4.4-.4zm57.6-30.6-11.3-4.5c.3-.8.3-1.7 0-2.5l4.8-1.8c.1.1.2.3.3.4.7.8 2 .8 2.8.1s.8-2 .1-2.8-2-.8-2.8-.1c-.5.5-.7 1.2-.6 1.9l-4.8 1.8c-.2-.4-.4-.7-.7-1-1.3-1.4-3.4-1.7-5-.8l-4-6.2.1-.1c1.1-1 1.1-2.6.1-3.7s-2.6-1.1-3.7-.1-1.1 2.6-.1 3.7c.8.9 2.1 1.1 3.1.6l4 6.2-.3.3c-1.3 1.2-1.6 2.9-1.1 4.4l-14.2 6.4c-.1-.2-.3-.4-.4-.6-1.2-1.3-3.2-1.4-4.5-.2s-1.4 3.2-.2 4.5 3.2 1.4 4.5.2c.9-.9 1.2-2.2.8-3.3l14.2-6.4.6.9c.7.7 1.6 1.2 2.5 1.3l-.7 10.1c-.6 0-1.2.3-1.7.7-1.1 1-1.1 2.6-.1 3.7s2.6 1.1 3.7.1 1.1-2.6.1-3.7c-.4-.4-.9-.7-1.5-.8l.7-10.4c1 0 2-.4 2.8-1.1.4-.4.7-.8.9-1.2l11.3 4.5c-.3 1-.1 2.2.7 3 1.2 1.3 3.2 1.4 4.5.2s1.4-3.2.2-4.5-3.2-1.4-4.5-.2c-.3.3-.5.6-.6 1zm-33.6-14.7-11.3-4.5c.3-.8.3-1.7 0-2.5l4.8-1.8c.1.1.2.3.3.4.7.8 2 .8 2.8.1s.8-2 .1-2.8-2-.8-2.8-.1c-.5.5-.7 1.2-.6 1.9l-4.8 1.8c-.2-.4-.4-.7-.7-1-1.3-1.4-3.4-1.7-5-.8l-4-6.2.1-.1c1.1-1 1.1-2.6.1-3.7s-2.6-1.1-3.7-.1-1.1 2.6-.1 3.7c.8.9 2.1 1.1 3.1.6l4 6.2-.3.3c-1.3 1.2-1.6 2.9-1.1 4.4l-14.2 6.4c-.1-.2-.3-.4-.4-.6-1.2-1.3-3.2-1.4-4.5-.2s-1.4 3.2-.2 4.5 3.2 1.4 4.5.2c.9-.9 1.2-2.2.8-3.3l14.2-6.4.6.9c.7.7 1.6 1.2 2.5 1.3l-.7 10.4c-.6 0-1.2.3-1.7.7-1.1 1-1.1 2.6-.1 3.7s2.6 1.1 3.7.1 1.1-2.6.1-3.7c-.4-.4-.9-.7-1.5-.8l.8-10.6c1 0 2-.4 2.8-1.1.4-.4.7-.8.9-1.2l11.3 4.5c-.3 1-.1 2.2.7 3 1.2 1.3 3.2 1.4 4.5.2s1.4-3.2.2-4.5-3.2-1.4-4.5-.2c-.3.2-.5.5-.7.9zm181.1 50.6c-1.2-1.3-3.2-1.4-4.5-.2-.3.3-.5.6-.7.9l-11.3-4.5c.3-.8.3-1.7 0-2.5l4.8-1.8c.1.1.2.3.3.4.7.8 2 .8 2.8.1s.8-2 .1-2.8-2-.8-2.8-.1c-.5.5-.7 1.2-.6 1.9l-4.8 1.8c-.2-.4-.4-.7-.7-1-1.3-1.4-3.4-1.7-5-.8l-4-6.2.1-.1c1.1-1 1.1-2.6.1-3.7s-2.6-1.1-3.7-.1-1.1 2.6-.1 3.7c.8.9 2.1 1.1 3.1.6l4 6.2-.3.3c-1.3 1.2-1.6 2.9-1.1 4.4l-14.2 6.4c-.1-.2-.3-.4-.4-.6-1.2-1.3-3.2-1.4-4.5-.2s-1.4 3.2-.2 4.5 3.2 1.4 4.5.2c.9-.9 1.2-2.2.8-3.3l14.2-6.4.6.9c.7.7 1.6 1.2 2.5 1.3l-.7 10.4c-.6 0-1.2.3-1.7.7-1.1 1-1.1 2.6-.1 3.7s2.6 1.1 3.7.1 1.1-2.6.1-3.7c-.4-.4-.9-.7-1.5-.8l.7-10.4c1 0 2-.4 2.8-1.1.4-.4.7-.8.9-1.2l11.3 4.5c-.3 1-.1 2.2.7 3 1.2 1.3 3.2 1.4 4.5.2 1.4-1.4 1.5-3.4.3-4.7zm-54.2-84.7c1.3-1.2 1.4-3.2.2-4.5s-3.2-1.4-4.5-.2c-.3.3-.5.6-.7.9l-11.3-4.5c.3-.8.3-1.7 0-2.5l4.8-1.8c.1.1.2.3.3.4.7.8 2 .8 2.8.1s.8-2 .1-2.8-2-.8-2.8-.1c-.5.5-.7 1.2-.6 1.9l-4.8 1.8c-.2-.4-.4-.7-.7-1-1.3-1.4-3.4-1.7-5-.8l-4-6.2.1-.1c1.1-1 1.1-2.6.1-3.7s-2.6-1.1-3.7-.1-1.1 2.6-.1 3.7c.8.9 2.1 1.1 3.1.6l4 6.2-.3.3c-1.3 1.2-1.6 2.9-1.1 4.4l-14.2 6.4c-.1-.2-.3-.4-.4-.6-1.2-1.3-3.2-1.4-4.5-.2s-1.4 3.2-.2 4.5 3.2 1.4 4.5.2c.9-.9 1.2-2.2.8-3.3l14.3-6.5.6.9c.7.7 1.6 1.2 2.5 1.3l-.7 10.4c-.6 0-1.2.3-1.7.7-1.1 1-1.1 2.6-.1 3.7s2.6 1.1 3.7.1 1.1-2.6.1-3.7c-.4-.4-.9-.7-1.5-.8l.7-10.4c1 0 2-.4 2.8-1.1.4-.4.7-.8.9-1.2l11.4 4.4c-.3 1-.1 2.2.7 3 1.2 1.3 3.2 1.4 4.4.2zm-112.9 87.5c-1.3 1.2-1.4 3.2-.2 4.5s3.2 1.4 4.5.2c.9-.9 1.2-2.2.8-3.3l14.2-6.4.6.9c.7.7 1.6 1.2 2.5 1.3l-.7 10.4c-.6 0-1.2.3-1.7.7-1.1 1-1.1 2.6-.1 3.7s2.6 1.1 3.7.1 1.1-2.6.1-3.7c-.4-.4-.9-.7-1.5-.8l.7-10.4c1 0 2-.4 2.8-1.1.4-.4.7-.8.9-1.2l11.3 4.5c-.3 1-.1 2.2.7 3 1.2 1.3 3.2 1.4 4.5.2s1.4-3.2.2-4.5-3.2-1.4-4.5-.2c-.3.3-.5.6-.7.9l-11.3-4.6c.3-.8.3-1.7 0-2.5l4.8-1.8c.1.1.2.3.3.4.7.8 2 .8 2.8.1s.8-2 .1-2.8-2-.8-2.8-.1c-.5.5-.7 1.2-.6 1.9l-4.8 1.8c-.2-.4-.4-.7-.7-1-1.3-1.4-3.4-1.7-5-.8l-4-6.2.1-.1c1.1-1 1.1-2.6.1-3.7s-2.6-1.1-3.7-.1-1.1 2.6-.1 3.7c.8.9 2.1 1.1 3.1.6l4 6.2-.3.3c-1.3 1.2-1.6 2.9-1.1 4.4l-14.2 6.4c-.1-.2-.3-.4-.4-.6-1.2-1.4-3.2-1.5-4.4-.3zm49.2-45.5-7.6-3c.2-.5.2-1.1 0-1.6l3.2-1.2c0 .1.1.2.2.2.5.5 1.3.6 1.9.1.5-.5.6-1.3.1-1.9-.5-.5-1.3-.6-1.9-.1-.4.3-.5.8-.4 1.3l-3.2 1.2c-.1-.2-.3-.5-.5-.7-.9-.9-2.3-1.1-3.4-.5l-2.7-4.1s.1 0 .1-.1c.7-.7.7-1.8.1-2.5-.7-.7-1.8-.7-2.5-.1-.7.7-.7 1.8-.1 2.5.5.6 1.4.7 2.1.4l2.7 4.1-.2.2c-.8.8-1.1 2-.7 3l-9.5 4.3c-.1-.1-.2-.3-.3-.4-.8-.9-2.1-.9-3-.1s-.9 2.1-.1 3 2.1.9 3 .1c.6-.6.8-1.5.6-2.2l9.5-4.3c.1.2.2.4.4.6.5.5 1 .8 1.6.9l-.4 6.9c-.4 0-.8.2-1.1.5-.7.7-.7 1.8-.1 2.5.7.7 1.8.7 2.5.1.7-.7.7-1.8.1-2.5-.3-.3-.6-.5-1-.5l.4-6.9c.7 0 1.3-.2 1.9-.7.3-.2.5-.5.6-.8l7.6 3c-.2.7 0 1.5.5 2 .8.9 2.1.9 3 .1s.9-2.1.1-3-2.1-.9-3-.1c-.2-.1-.4.1-.5.3zm29.6-56.2c1.3-1.2 1.4-3.2.2-4.5s-3.2-1.4-4.5-.2c-.3.3-.5.6-.7.9l-11.3-4.5c.3-.8.3-1.7 0-2.5l4.8-1.8c.1.1.2.3.3.4.7.8 2 .8 2.8.1s.8-2 .1-2.8-2-.8-2.8-.1c-.5.5-.7 1.2-.6 1.9l-4.8 1.8c-.2-.4-.4-.7-.7-1-1.3-1.4-3.4-1.7-5-.8l-4-6.2.1-.1c1.1-1 1.1-2.6.1-3.7s-2.6-1.1-3.7-.1-1.1 2.6-.1 3.7c.8.9 2.1 1.1 3.1.6l4 6.2-.3.3c-1.3 1.2-1.6 2.9-1.1 4.4l-14.2 6.4c-.1-.2-.3-.4-.4-.6-1.2-1.3-3.2-1.4-4.5-.2s-1.4 3.2-.2 4.5 3.2 1.4 4.5.2c.9-.9 1.2-2.2.8-3.3l14.2-6.4.6.9c.7.7 1.6 1.2 2.5 1.3l-.7 10.4c-.6 0-1.2.3-1.7.7-1.1 1-1.1 2.6-.1 3.7s2.6 1.1 3.7.1 1.1-2.6.1-3.7c-.4-.4-.9-.7-1.5-.8l.7-10.4c1 0 2-.4 2.8-1.1.4-.4.7-.8.9-1.2l11.3 4.5c-.3 1-.1 2.2.7 3 1.4 1.1 3.4 1.2 4.6 0zm-31.1 69.5 14.2-6.4.6.9c.7.7 1.6 1.2 2.5 1.3l-.7 10.4c-.6 0-1.2.3-1.7.7-1.1 1-1.1 2.6-.1 3.7s2.6 1.1 3.7.1 1.1-2.6.1-3.7c-.4-.4-.9-.7-1.5-.8l.7-10.4c1 0 2-.4 2.8-1.1.4-.4.7-.8.9-1.2l11.3 4.5c-.3 1-.1 2.2.7 3 1.2 1.3 3.2 1.4 4.5.2s1.4-3.2.2-4.5-3.2-1.4-4.5-.2c-.3.3-.5.6-.7.9l-11.3-4.5c.3-.8.3-1.7 0-2.5l4.8-1.8c.1.1.2.3.3.4.7.8 2 .8 2.8.1s.8-2 .1-2.8-2-.8-2.8-.1c-.5.5-.7 1.2-.6 1.9l-4.8 1.8c-.2-.4-.4-.7-.7-1-1.3-1.4-3.4-1.7-5-.8l-4-6.2.1-.1c1.1-1 1.1-2.6.1-3.7s-2.6-1.1-3.7-.1-1.1 2.6-.1 3.7c.8.9 2.1 1.1 3.1.6l4 6.2-.3.3c-1.3 1.2-1.6 2.9-1.1 4.4l-14.2 6.4c-.1-.2-.3-.4-.4-.6-1.2-1.3-3.2-1.4-4.5-.2s-1.4 3.2-.2 4.5 3.2 1.4 4.5.2c1-1.1 1.3-2.4.9-3.5zm205.6 33.2c-1.2-1.3-3.2-1.4-4.5-.2-.3.3-.5.6-.7.9l-11.3-4.5c.3-.8.3-1.7 0-2.5l4.8-1.8c.1.1.2.3.3.4.7.8 2 .8 2.8.1s.8-2 .1-2.8-2-.8-2.8-.1c-.5.5-.7 1.2-.6 1.9l-4.8 1.8c-.2-.4-.4-.7-.7-1-1.3-1.4-3.4-1.7-5-.8l-4-6.2.1-.1c1.1-1 1.1-2.6.1-3.7s-2.6-1.1-3.7-.1-1.1 2.6-.1 3.7c.8.9 2.1 1.1 3.1.6l4 6.2-.3.3c-1.3 1.2-1.6 2.9-1.1 4.4l-14.2 6.4c-.1-.2-.3-.4-.4-.6-1.2-1.3-3.2-1.4-4.5-.2s-1.4 3.2-.2 4.5 3.2 1.4 4.5.2c.9-.9 1.2-2.2.8-3.3l14.2-6.4.6.9c.7.7 1.6 1.2 2.5 1.3l-.7 10.4c-.6 0-1.2.3-1.7.7-1.1 1-1.1 2.6-.1 3.7s2.6 1.1 3.7.1 1.1-2.6.1-3.7c-.4-.4-.9-.7-1.5-.8l.7-10.4c1 0 2-.4 2.8-1.1.4-.4.7-.8.9-1.2l11.3 4.5c-.3 1-.1 2.2.7 3 1.2 1.3 3.2 1.4 4.5.2 1.4-1.4 1.5-3.4.3-4.7zm-667.7-66.2-4-6.2.1-.1c1.1-1 1.1-2.6.1-3.7s-2.6-1.1-3.7-.1-1.1 2.6-.1 3.7c.8.9 2.1 1.1 3.1.6l4 6.2-.3.3c-1.3 1.2-1.6 2.9-1.1 4.4l-14.2 6.4c-.1-.2-.3-.4-.4-.6-1.2-1.3-3.2-1.4-4.5-.2s-1.4 3.2-.2 4.5 3.2 1.4 4.5.2c.9-.9 1.2-2.2.8-3.3l14.2-6.4.6.9c.7.7 1.6 1.2 2.5 1.3l-.7 10.4c-.6 0-1.2.3-1.7.7-1.1 1-1.1 2.6-.1 3.7s2.6 1.1 3.7.1 1.1-2.6.1-3.7c-.4-.4-.9-.7-1.5-.8l.7-10.4c1 0 2-.4 2.8-1.1.4-.4.7-.8.9-1.2l11.3 4.5c-.3 1-.1 2.2.7 3 1.2 1.3 3.2 1.4 4.5.2s1.4-3.2.2-4.5-3.2-1.4-4.5-.2c-.3.3-.5.6-.7.9l-11.3-4.5c.3-.8.3-1.7 0-2.5l4.8-1.8c.1.1.2.3.3.4.7.8 2 .8 2.8.1s.8-2 .1-2.8-2-.8-2.8-.1c-.5.5-.7 1.2-.6 1.9l-4.8 1.8c-.2-.4-.4-.7-.7-1-1.2-1.6-3.3-1.9-4.9-1zm-5.2 50c-.1 1.1.7 2.1 1.8 2.2.7.1 1.4-.3 1.8-.8l4.5 2.4c-.2.4-.3.8-.3 1.2-.2 1.9 1 3.7 2.7 4.3l-2 7.1h-.2c-1.4-.1-2.7.9-2.9 2.3-.1 1.4.9 2.7 2.3 2.9 1.4.1 2.7-.9 2.9-2.3.1-1.2-.6-2.3-1.6-2.7l2-7.1c.1 0 .3 0 .4.1 1.7.2 3.3-.7 4-2.1l14.1 6.4c-.1.2-.1.5-.2.7-.2 1.7 1.1 3.3 2.8 3.5s3.3-1.1 3.5-2.8-1.1-3.3-2.8-3.5c-1.3-.1-2.5.5-3.1 1.6l-14.1-6.4c.1-.3.2-.7.2-1 .1-1-.2-1.9-.7-2.7l8.2-6.3c.4.4 1 .7 1.6.8 1.4.1 2.7-.9 2.9-2.3.1-1.4-.9-2.7-2.3-2.9-1.4-.1-2.7.9-2.9 2.3-.1.6.1 1.2.4 1.6l-8.2 6.3c-.7-.7-1.6-1.3-2.7-1.4-.5-.1-1.1 0-1.5.1l-4.1-11.5c1-.5 1.7-1.4 1.8-2.5.2-1.7-1.1-3.3-2.8-3.5s-3.3 1.1-3.5 2.8 1.1 3.3 2.8 3.5c.4 0 .8 0 1.1-.1l4.1 11.5c-.8.3-1.4.9-1.9 1.6l-4.5-2.4c0-.1.1-.3.1-.4.1-1.1-.7-2.1-1.8-2.2-.8-.2-1.8.6-1.9 1.7zm519.7-48.9-11.3-4.5c.3-.8.3-1.7 0-2.5l4.8-1.8c.1.1.2.3.3.4.7.8 2 .8 2.8.1s.8-2 .1-2.8-2-.8-2.8-.1c-.5.5-.7 1.2-.6 1.9l-4.8 1.8c-.2-.4-.4-.7-.7-1-1.3-1.4-3.4-1.7-5-.8l-4-6.2.1-.1c1.1-1 1.1-2.6.1-3.7s-2.6-1.1-3.7-.1-1.1 2.6-.1 3.7c.8.9 2.1 1.1 3.1.6l4 6.2-.3.3c-1.3 1.2-1.6 2.9-1.1 4.4l-14.2 6.3c-.1-.2-.3-.4-.4-.6-1.2-1.3-3.2-1.4-4.5-.2s-1.4 3.2-.2 4.5 3.2 1.4 4.5.2c.9-.9 1.2-2.2.8-3.3l14.2-6.4.6.9c.7.7 1.6 1.2 2.5 1.3l-.7 10.4c-.6 0-1.2.3-1.7.7-1.1 1-1.1 2.6-.1 3.7s2.6 1.1 3.7.1 1.1-2.6.1-3.7c-.4-.4-.9-.7-1.5-.8l.7-10.4c1 0 2-.4 2.8-1.1.4-.4.7-.8.9-1.2l11.3 4.5c-.3 1-.1 2.2.7 3 1.2 1.3 3.2 1.4 4.5.2s1.4-3.2.2-4.5-3.2-1.4-4.5-.2c-.2.2-.4.5-.6.8zm-67.3-13.2c-1.2-1.3-3.2-1.4-4.5-.2s-1.4 3.2-.2 4.5 3.2 1.4 4.5.2c.9-.9 1.2-2.2.8-3.3l14.2-6.4.6.9c.7.7 1.6 1.2 2.5 1.3l-.7 10.4c-.6 0-1.2.3-1.7.7-1.1 1-1.1 2.6-.1 3.7s2.6 1.1 3.7.1 1.1-2.6.1-3.7c-.4-.4-.9-.7-1.5-.8l.7-10.4c1 0 2-.4 2.8-1.1.4-.4.7-.8.9-1.2l11.3 4.5c-.3 1-.1 2.2.7 3 1.2 1.3 3.2 1.4 4.5.2s1.4-3.2.2-4.5-3.2-1.4-4.5-.2c-.3.3-.5.6-.7.9l-11.3-4.5c.3-.8.3-1.7 0-2.5l4.8-1.8c.1.1.2.3.3.4.7.8 2 .8 2.8.1s.8-2 .1-2.8-2-.8-2.8-.1c-.5.5-.7 1.2-.6 1.9l-4.8 1.8c-.2-.4-.4-.7-.7-1-1.3-1.4-3.4-1.7-5-.8l-4-6.2.1-.1c1.1-1 1.1-2.6.1-3.7s-2.6-1.1-3.7-.1-1.1 2.6-.1 3.7c.8.9 2.1 1.1 3.1.6l4 6.2-.3.3c-1.3 1.2-1.6 2.9-1.1 4.4l-14.2 6.4c.1-.4-.1-.6-.3-.8zm-112.4 55.5c-1.3 1.2-1.4 3.2-.2 4.5s3.2 1.4 4.5.2c.9-.9 1.2-2.2.8-3.3l14.2-6.4.6.9c.7.7 1.6 1.2 2.5 1.3l-.7 10.4c-.6 0-1.2.3-1.7.7-1.1 1-1.1 2.6-.1 3.7s2.6 1.1 3.7.1 1.1-2.6.1-3.7c-.4-.4-.9-.7-1.5-.8l.7-10.4c1 0 2-.4 2.8-1.1.4-.4.7-.8.9-1.2l11.3 4.5c-.3 1-.1 2.2.7 3 1.2 1.3 3.2 1.4 4.5.2s1.4-3.2.2-4.5-3.2-1.4-4.5-.2c-.3.3-.5.6-.7.9l-11.3-4.5c.3-.8.3-1.7 0-2.5l4.8-1.8c.1.1.2.3.3.4.7.8 2 .8 2.8.1s.8-2 .1-2.8-2-.8-2.8-.1c-.5.5-.7 1.2-.6 1.9l-4.8 1.8c-.2-.4-.4-.7-.7-1-1.3-1.4-3.4-1.7-5-.8l-4-6.2.1-.1c1.1-1 1.1-2.6.1-3.7s-2.6-1.1-3.7-.1-1.1 2.6-.1 3.7c.8.9 2.1 1.1 3.1.6l4 6.2-.3.3c-1.3 1.2-1.6 2.9-1.1 4.4l-14.1 6.2c-.1-.2-.3-.4-.4-.6-1.2-1.3-3.2-1.4-4.5-.2zm-85.7-53.5c1.2-1.7.8-4-.9-5.2s-4-.8-5.2.9-.8 4 .9 5.2c1.4 1 3.2.9 4.5-.1l7.4 7.5c-.1.1-.2.3-.4.5-1.4 2-1.4 4.5-.2 6.5l-17.9 12.9c-.2-.3-.5-.5-.8-.7-2-1.4-4.8-1-6.2 1s-1 4.8 1 6.2 4.8 1 6.2-1c1.1-1.5 1.1-3.4.2-4.9l17.9-12.9c.3.4.7.7 1.1 1 1.1.8 2.5 1.2 3.8 1.1l2 14.6c-.8.2-1.6.7-2.1 1.4-1.2 1.7-.8 4 .9 5.2s4 .8 5.2-.9.8-4-.9-5.2c-.7-.5-1.5-.7-2.3-.7l-2-14.6c1.4-.3 2.7-1.1 3.5-2.3.4-.6.7-1.3.9-2l17 3c-.1 1.5.5 3.1 1.9 4 2 1.4 4.8 1 6.2-1s1-4.8-1-6.2-4.8-1-6.2 1c-.3.4-.5.9-.7 1.4l-17-3c.1-1.2-.1-2.4-.7-3.4l6.1-3.9c.1.2.3.3.5.4 1.3.9 3 .6 3.9-.7s.6-3-.7-3.9-3-.6-3.9.7c-.6.8-.7 1.9-.3 2.8l-6.1 3.9c-.4-.5-.8-.9-1.3-1.3-2.2-1.6-5.2-1.4-7.2.3l-7.4-7.5c.2 0 .3-.1.3-.1z"/>
    <path fill="#355A82" opacity="0.44" d="m911.3 22.4-14.3-24.8 14.2-24.7.1-.1-14.3-24.9-.1-.1h-28.9l-11.6 20.1h-.6c-2.7 0-4.9 2.1-5 4.7h-17.6c-.1-2.6-2.3-4.7-5-4.7-1.7 0-3.2.9-4.1 2.2l-12.8-22.1-.1-.1h-28.9l-11.6 20.2c-.3-.1-.7-.1-1-.1-2.7 0-4.9 2.1-5 4.7h-19.1c-.1-2.6-2.3-4.7-5-4.7-1.1 0-2.1.3-2.9.9l-12-20.9-.1-.1h-28.9l-11.8 20.1c-.5-.1-1-.2-1.5-.2-2.7 0-4.9 2.1-5 4.7h-17.6c-.1-2.6-2.3-4.7-5-4.7-1.4 0-2.7.6-3.6 1.5l-12.4-21.4-.1-.1h-28.9l-11.8 20.4c-.6-.2-1.2-.4-1.9-.4-2.7 0-4.9 2.1-5 4.7h-17.6c-.1-2.6-2.3-4.7-5-4.7-1.2 0-2.4.5-3.2 1.2l-12.2-21.1-.1-.1h-28.9l-11.9 20.6c-.7-.4-1.5-.5-2.3-.5-2.7 0-4.9 2.1-5 4.7h-17.6c-.1-2.6-2.3-4.7-5-4.7-1.1 0-2.1.3-2.9.9l-12-20.9-.1-.1h-28.9l-12 20.8c-.8-.5-1.7-.8-2.6-.8-2.7 0-4.9 2.1-5 4.7h-17.6c-.1-2.6-2.3-4.7-5-4.7-.9 0-1.8.3-2.5.7l-11.9-20.6-.1-.1h-28.9l-12.2 21.1c-.8-.6-1.9-1-3-1-2.7 0-4.9 2.1-5 4.7h-17.6c-.1-2.6-2.3-4.7-5-4.7-.8 0-1.5.2-2.2.5l-11.8-20.4-.1-.1h-28.9l-11.9 20.6c-.7-.4-1.5-.5-2.3-.5-2.7 0-4.9 2.1-5 4.7h-23.7l-14.3 24.9 14.3 24.8-14.3 24.8 14.4 24.9.1.1h23.7c.1 2.6 2.3 4.7 5 4.7.8 0 1.6-.2 2.3-.5l9.3 16.1c-1.4.9-2.4 2.5-2.4 4.3 0 2.8 2.2 5 5 5 2.7 0 4.9-2.1 5-4.7h18.6c.1 2.6 2.3 4.7 5 4.7.8 0 1.6-.2 2.3-.5l9.3 16.2c-1.4.9-2.2 2.4-2.2 4.2 0 2.8 2.2 5 5 5 2.7 0 4.9-2.1 5-4.7h17.6c.1 2.6 2.3 4.7 5 4.7 2.8 0 5-2.2 5-5 0-1.4-.6-2.7-1.6-3.6l9.5-16.4c.5.1 1 .2 1.5.2 2.8 0 5-2.2 5-5s-2.2-5-5-5c-.5 0-1 .1-1.5.2l-9.5-16.4c1-.9 1.6-2.2 1.6-3.6s-.6-2.7-1.6-3.6l9.5-16.4c.5.1 1 .2 1.5.2 2.8 0 5-2.2 5-5s-2.2-5-5-5c-.5 0-1 .1-1.5.2l-9.5-16.4c1-.9 1.6-2.2 1.6-3.6s-.6-2.7-1.6-3.6l9.5-16.4c.5.1 1 .2 1.5.2 2.7 0 4.9-2.1 5-4.7h19.8c.1 2.6 2.3 4.7 5 4.7.7 0 1.3-.1 1.9-.4l9.4 16.3c-1.2.9-1.9 2.3-1.9 3.9s.7 3 1.9 3.9l-9.4 16.3c-.6-.2-1.2-.4-1.9-.4-2.8 0-5 2.2-5 5s2.2 5 5 5c.7 0 1.3-.1 1.9-.4l9.4 16.3c-1.2.9-1.9 2.3-1.9 3.9 0 2.8 2.2 5 5 5 2.7 0 4.9-2.1 5-4.7h17.6c.1 2.6 2.3 4.7 5 4.7 1 0 1.9-.3 2.6-.8l9.3 16.2c-1.6.8-2.6 2.5-2.6 4.4 0 2.8 2.2 5 5 5 2.7 0 4.9-2.1 5-4.7h19.9c.1 2.6 2.3 4.7 5 4.7 2.8 0 5-2.2 5-5 0-2-1.2-3.7-2.9-4.5l9.4-16.2c.8.6 1.8.9 2.9.9 2.7 0 4.9-2.1 5-4.7h17.6c.1 2.6 2.3 4.7 5 4.7 2.8 0 5-2.2 5-5 0-1.7-.9-3.3-2.2-4.2l9.3-16.2c.7.4 1.5.5 2.3.5 2.7 0 4.9-2.1 5-4.7h18.7c.1 2.6 2.3 4.7 5 4.7 2.8 0 5-2.2 5-5 0-1.8-.9-3.4-2.4-4.2l9.3-16.2c.7.4 1.5.6 2.4.6 2.7 0 4.9-2.1 5-4.7h18.8c.1 2.6 2.3 4.7 5 4.7.7 0 1.3-.1 1.9-.4l9.4 16.3c-1.2.9-1.9 2.3-1.9 3.9s.7 3 1.9 3.9l-9.4 16.3c-.6-.2-1.2-.4-1.9-.4-2.8 0-5 2.2-5 5s2.2 5 5 5c.7 0 1.3-.1 1.9-.4l9.4 16.3c-1.2.9-1.9 2.3-1.9 3.9 0 2.8 2.2 5 5 5 2.7 0 4.9-2.1 5-4.7h19.9c.1 2.6 2.3 4.7 5 4.7 2.8 0 5-2.2 5-5 0-2.3-1.6-4.3-3.7-4.8l8.9-15.4c.6.3 1.3.4 2 .4 2.8 0 5-2.2 5-5s-2.2-5-5-5c-.7 0-1.4.2-2 .4l-9.1-15.4c2.1-.6 3.7-2.5 3.7-4.8s-1.6-4.3-3.7-4.8l9.1-15.8c.8.5 1.7.8 2.7.8 2.7 0 4.9-2.1 5-4.7h18.9c.1 2.6 2.3 4.7 5 4.7 2.8 0 5-2.2 5-5 0-2-1.2-3.8-3-4.6l9.4-16.2c.8.6 1.9 1 3 1 2.7 0 4.9-2.1 5-4.7h18.4c.1 2.6 2.3 4.7 5 4.7.5 0 1-.1 1.5-.2l9.5 16.4c-1 .9-1.6 2.2-1.6 3.6s.6 2.7 1.6 3.6l-9.5 16.4c-.5-.1-1-.2-1.5-.2-2.7 0-4.9 2.1-5 4.7h-18.4c-.1-2.6-2.3-4.7-5-4.7-2.8 0-5 2.2-5 5 0 1.4.6 2.7 1.6 3.6l-9.5 16.4c-.5-.1-1-.2-1.5-.2-2.8 0-5 2.2-5 5s2.2 5 5 5c.5 0 1-.1 1.5-.2l9.5 16.4c-1 .9-1.6 2.2-1.6 3.6 0 2.8 2.2 5 5 5 2.7 0 4.9-2.1 5-4.7h19.9c.1 2.6 2.3 4.7 5 4.7 2.8 0 5-2.2 5-5 0-2.5-1.8-4.5-4.1-4.9l9.1-15.8c.8.6 1.8.9 2.9.9 2.7 0 4.9-2.1 5-4.7h17.6c.1 2.6 2.3 4.7 5 4.7 2.8 0 5-2.2 5-5 0-1.7-.9-3.3-2.2-4.2l9.2-16c.5.2 1.1.3 1.7.3 2.8 0 5-2.2 5-5s-2.2-5-5-5c-.6 0-1.2.1-1.7.3l-9.2-16c1.3-.9 2.2-2.4 2.2-4.2 0-1.7-.9-3.3-2.2-4.2l8.9-15.6c.5.2 1 .3 1.6.3 2.7 0 4.9-2.1 5-4.7h19.9c.1 2.6 2.3 4.7 5 4.7.6 0 1.2-.1 1.8-.3l9.4 16.3c-1.1.9-1.8 2.3-1.8 3.8s.7 2.9 1.8 3.8l-9.4 16.3c-.6-.2-1.2-.3-1.8-.3-2.8 0-5 2.2-5 5s2.2 5 5 5c.6 0 1.2-.1 1.8-.3l9.4 16.3c-1.1.9-1.8 2.3-1.8 3.8s.7 2.9 1.8 3.8l-9.4 16.3c-.6-.2-1.2-.3-1.8-.3-2.7 0-4.9 2.1-5 4.7h-19.9c-.1-2.6-2.3-4.7-5-4.7-2.8 0-5 2.2-5 5 0 2 1.2 3.7 2.9 4.5l-9.4 16.2c-.8-.6-1.8-.9-2.9-.9-2.8 0-5 2.2-5 5s2.2 5 5 5c1.1 0 2.1-.3 2.9-.9l9.4 16.2c-1.7.8-2.9 2.5-2.9 4.5 0 2.8 2.2 5 5 5 2.7 0 4.9-2.1 5-4.7h19.9c.1 2.6 2.3 4.7 5 4.7 2.8 0 5-2.2 5-5 0-1.9-1.1-3.5-2.6-4.4l9.3-16.2c.8.5 1.7.8 2.6.8 2.7 0 4.9-2.1 5-4.7h17.6c.1 2.6 2.3 4.7 5 4.7.9 0 1.8-.3 2.6-.7l9.3 16.2c-1.5.9-2.5 2.5-2.5 4.3 0 2.8 2.2 5 5 5 2.7 0 4.9-2.1 5-4.7h24.1l14.4-24.9.1-.1-14.4-25 14.2-24.7.1-.1-14.3-24.8 14.2-24.7zm-43.1-74.1h28.4l14.2 24.6-14.2 24.5h-23.8c-.1-2.6-2.3-4.7-5-4.7-.7 0-1.4.1-2 .4l-8.9-15.4c2.2-.5 3.8-2.5 3.8-4.9s-1.7-4.4-3.9-4.9zm-85.6 0h28.4l12.9 22.3c-.4.7-.6 1.5-.6 2.3s.2 1.5.5 2.1l-10.5 18c-.6-.2-1.2-.3-1.8-.3-2.7 0-4.9 2.1-5 4.7h-19.9c-.1-2.6-2.3-4.7-5-4.7-.6 0-1.1.1-1.6.3l-8.9-15.3c2-.7 3.4-2.5 3.4-4.7s-1.4-4.1-3.4-4.7zm-85.7 0h28.4l12 20.8c-1 .9-1.7 2.3-1.7 3.8 0 1.4.6 2.7 1.6 3.6l-9.5 16.4c-.5-.1-1-.2-1.5-.2-2.7 0-4.9 2.1-5 4.7h-18.4c-.1-2.6-2.3-4.7-5-4.7-1.1 0-2.2.4-3 1l-9.4-16.2c1.8-.8 3-2.5 3-4.6s-1.3-3.8-3-4.6zm-85.7 0h28.4l12.4 21.5c-.7.9-1.1 1.9-1.1 3.1 0 1.1.4 2.1 1 3l-9.8 16.9h-.6c-2.7 0-4.9 2.1-5 4.7h-19.9c-.1-2.6-2.3-4.7-5-4.7-1 0-1.9.3-2.6.8l-9.3-16.2c1.6-.8 2.6-2.5 2.6-4.4s-1.1-3.6-2.6-4.4zm-42.7 69.1c-.9 0-1.7.2-2.4.6l-9.3-16.2c1.4-.9 2.4-2.5 2.4-4.2s-.9-3.4-2.4-4.2l9.7-16.8c.9.7 2 1.2 3.2 1.2 2.7 0 4.9-2.1 5-4.7h17.6c.1 2.6 2.3 4.7 5 4.7.7 0 1.3-.1 1.9-.4l9.4 16.3c-1.2.9-1.9 2.3-1.9 3.9s.7 3 1.9 3.9l-9.4 16.3c-.6-.2-1.2-.4-1.9-.4-2.7 0-4.9 2.1-5 4.7h-18.8c-.1-2.6-2.3-4.7-5-4.7zm-43-69.1h28.4l12.2 21.1c-.9.9-1.4 2.1-1.4 3.4s.5 2.4 1.3 3.3l-9.8 16.9c-.6-.3-1.3-.4-2-.4-2.7 0-4.9 2.1-5 4.7h-18.7c-.1-2.6-2.3-4.7-5-4.7-.8 0-1.6.2-2.3.5l-9.4-16.1c1.4-.9 2.2-2.4 2.2-4.2s-.9-3.3-2.3-4.2zm-37 73.9c-.1-2.6-2.3-4.7-5-4.7-1.1 0-2.1.3-2.9.9l-9.4-16.2c1.7-.8 2.9-2.5 2.9-4.5s-1.2-3.7-2.9-4.5l9.4-16.2c.8.6 1.8.9 2.9.9 2.7 0 4.9-2.1 5-4.7h17.6c.1 2.6 2.3 4.7 5 4.7.8 0 1.6-.2 2.3-.5l9.3 16.2c-1.4.9-2.2 2.4-2.2 4.2 0 1.7.9 3.3 2.2 4.2l-9.4 16c-.7-.4-1.5-.5-2.3-.5-2.7 0-4.9 2.1-5 4.7zm-44.3 24.8c-.1-2.6-2.3-4.7-5-4.7-.7 0-1.3.1-1.9.4l-9.3-16.4c1.2-.9 1.9-2.3 1.9-3.9s-.7-3-1.9-3.9l9.4-16.3c.6.2 1.2.4 1.9.4 2.7 0 4.9-2.1 5-4.7h19.9c.1 2.6 2.3 4.7 5 4.7.5 0 1-.1 1.5-.2l9.5 16.4c-1 .9-1.6 2.2-1.6 3.6s.6 2.7 1.6 3.6l-9.5 16.4c-.5-.1-1-.2-1.5-.2-2.7 0-4.9 2.1-5 4.7zm-4.4-98.7h28.4l12 20.8c-1 .9-1.7 2.3-1.7 3.7s.6 2.7 1.6 3.6l-9.5 16.4c-.5-.1-1-.2-1.5-.2-2.7 0-4.9 2.1-5 4.7h-19.9c-.1-2.6-2.3-4.7-5-4.7-.7 0-1.3.1-1.9.4l-9.3-16.3c1.2-.9 1.9-2.3 1.9-3.9s-.8-3-1.9-3.9zm-85.7 0h28.4l11.9 20.5c-1.2.9-2 2.4-2 4s.7 3 1.9 3.9l-9.5 16.3c-.6-.2-1.2-.4-1.9-.4-2.7 0-4.9 2.1-5 4.7h-19.9c-.1-2.6-2.3-4.7-5-4.7-.5 0-1 .1-1.5.2l-9.5-16.4c1-.9 1.6-2.2 1.6-3.6s-.6-2.8-1.6-3.7zm-80.7 98.7c-.1-2.6-2.3-4.7-5-4.7-.8 0-1.6.2-2.3.5l-9.3-16.2c1.4-.9 2.2-2.4 2.2-4.2 0-1.7-.9-3.3-2.2-4.2l9.3-16.2c.7.4 1.5.5 2.3.5 2.7 0 4.9-2.1 5-4.7h18.4c.1 2.6 2.3 4.7 5 4.7.8 0 1.6-.2 2.3-.5l9.3 16.2c-1.4.9-2.2 2.4-2.2 4.2 0 1.7.9 3.3 2.2 4.2l-9.3 16.2c-.7-.4-1.5-.5-2.3-.5-2.7 0-4.9 2.1-5 4.7zm-4.9-98.7h28.4l11.7 20.3c-1.4.9-2.4 2.5-2.4 4.3 0 1.7.9 3.3 2.2 4.2l-9.3 16.2c-.7-.4-1.5-.5-2.3-.5-2.7 0-4.9 2.1-5 4.7h-18.4c-.1-2.6-2.3-4.7-5-4.7-.8 0-1.6.2-2.3.5l-9.4-16.3c1.4-.9 2.2-2.4 2.2-4.2s-.9-3.3-2.3-4.2zm-42.9 24.8h23.4c.1 2.6 2.3 4.7 5 4.7.8 0 1.6-.2 2.3-.5l9.3 16.2c-1.4.9-2.2 2.4-2.2 4.2 0 1.7.9 3.3 2.2 4.2l-9.3 16.1c-.7-.4-1.5-.5-2.3-.5-2.7 0-4.9 2.1-5 4.7h-23.5l-14.1-24.6zm-14.2 74.1 14.2-24.6h23.4c.1 2.6 2.3 4.7 5 4.7.8 0 1.6-.2 2.3-.5l9.3 16.2c-1.4.9-2.2 2.4-2.2 4.2 0 1.7.9 3.3 2.2 4.2l-9.3 16.2c-.7-.4-1.5-.5-2.3-.5-2.7 0-4.9 2.1-5 4.7h-23.5zm45.3 29c1.4-.9 2.3-2.4 2.3-4.2 0-1.7-.9-3.3-2.2-4.2l9.3-16.2c.7.4 1.5.5 2.3.5 2.7 0 4.9-2.1 5-4.7h18.4c.1 2.6 2.3 4.7 5 4.7.8 0 1.6-.2 2.3-.5l9.3 16.2c-1.4.9-2.2 2.4-2.2 4.2 0 1.7.9 3.3 2.2 4.2l-9.3 16.2c-.7-.4-1.5-.5-2.3-.5-2.7 0-4.9 2.1-5 4.7h-18.6c-.1-2.6-2.3-4.7-5-4.7-.8 0-1.5.2-2.2.5zm94.4 16c-1.8.8-3 2.5-3 4.6s1.3 3.8 3 4.6l-9.4 16.2c-.8-.6-1.9-1-3-1-2.7 0-4.9 2.1-5 4.7h-17.6c-.1-2.6-2.3-4.7-5-4.7-.8 0-1.6.2-2.3.6l-9.3-16.2c1.4-.9 2.3-2.4 2.3-4.2 0-1.7-.9-3.2-2.1-4.1l9.4-16.2c.7.3 1.4.5 2.2.5 2.7 0 4.9-2.1 5-4.7h17.6c.1 2.6 2.3 4.7 5 4.7 1.1 0 2.2-.4 3-1zm0-49.6c-1.8.8-3 2.5-3 4.6s1.3 3.8 3 4.6l-9.4 16.2c-.8-.6-1.9-1-3-1-2.7 0-4.9 2.1-5 4.7h-17.6c-.1-2.6-2.3-4.7-5-4.7-.8 0-1.5.2-2.2.5l-9.4-16.2c1.3-.9 2.1-2.4 2.1-4.1s-.9-3.2-2.1-4.1l9.4-16.2c.7.3 1.4.5 2.2.5 2.7 0 4.9-2.1 5-4.7h17.6c.1 2.6 2.3 4.7 5 4.7 1.1 0 2.2-.4 3-1zm-9.4-24.1c-.8-.6-1.9-1-3-1-2.7 0-4.9 2.1-5 4.7h-17.6c-.1-2.6-2.3-4.7-5-4.7-.8 0-1.5.2-2.2.5l-9.4-16.2c1.3-.9 2.1-2.4 2.1-4.1s-.9-3.2-2.1-4.1l9.4-16.2c.7.3 1.4.5 2.2.5 2.7 0 4.9-2.1 5-4.7h17.6c.1 2.6 2.3 4.7 5 4.7 1.1 0 2.2-.4 3-1l9.4 16.1c-1.8.8-3 2.5-3 4.6s1.3 3.8 3 4.6zm43.6-16.5c1.6-.8 2.6-2.5 2.6-4.4s-1-3.5-2.5-4.3l9.3-16.2c.7.4 1.6.7 2.5.7 2.7 0 4.9-2.1 5-4.7h17.6c.1 2.6 2.3 4.7 5 4.7 1 0 1.9-.3 2.6-.8l9.3 16.2c-1.6.8-2.6 2.5-2.6 4.4s1.1 3.5 2.6 4.4l-9.3 16.2c-.8-.5-1.7-.8-2.6-.8-2.7 0-4.9 2.1-5 4.7h-17.6c-.1-2.6-2.3-4.7-5-4.7-1 0-1.9.3-2.7.8zm0 49.6c1.6-.8 2.6-2.5 2.6-4.4s-1.1-3.6-2.6-4.4l9.3-16.2c.8.5 1.7.8 2.7.8 2.7 0 4.9-2.1 5-4.7h17.6c.1 2.6 2.3 4.7 5 4.7 1 0 1.9-.3 2.6-.8l9.3 16.2c-1.6.8-2.6 2.5-2.6 4.4s1.1 3.5 2.6 4.4l-9.3 16.2c-.8-.5-1.7-.8-2.6-.8-2.7 0-4.9 2.1-5 4.7h-17.6c-.1-2.6-2.3-4.7-5-4.7-1 0-1.9.3-2.7.8zm85.5 40.5c-.5-.2-1.1-.3-1.6-.3-2.7 0-4.9 2.1-5 4.7h-19.9c-.1-2.6-2.3-4.7-5-4.7-.7 0-1.3.1-1.9.4l-9.5-16.2c1.2-.9 1.9-2.3 1.9-3.9s-.7-3-1.9-3.9l9.4-16.3c.6.2 1.2.4 1.9.4 2.7 0 4.9-2.1 5-4.7h19.9c.1 2.6 2.3 4.7 5 4.7.5 0 1-.1 1.5-.2l9.5 16.4c-1 .9-1.6 2.2-1.6 3.6 0 1.5.7 2.8 1.7 3.7zm42.6-24.5c-.7-.4-1.5-.6-2.3-.6-2.7 0-4.9 2.1-5 4.7h-17.6c-.1-2.6-2.3-4.7-5-4.7-1.1 0-2.1.3-2.9.9l-9.4-16.2c1.7-.8 2.9-2.5 2.9-4.5s-1.2-3.7-2.9-4.5l9.4-16.2c.8.6 1.8.9 2.9.9 2.7 0 4.9-2.1 5-4.7h17.6c.1 2.6 2.3 4.7 5 4.7.8 0 1.6-.2 2.3-.5l9.3 16.2c-1.4.9-2.2 2.4-2.2 4.2s.9 3.3 2.3 4.2zm42.9-24.9c-.7-.3-1.4-.5-2.2-.5-2.7 0-4.9 2.1-5 4.7h-18.7c-.1-2.6-2.3-4.7-5-4.7-.8 0-1.6.2-2.3.5l-9.3-16.2c1.4-.9 2.2-2.4 2.2-4.2 0-1.7-.9-3.3-2.2-4.2l9.3-16.2c.7.4 1.5.5 2.3.5 2.7 0 4.9-2.1 5-4.7h18.7c.1 2.6 2.3 4.7 5 4.7.7 0 1.4-.2 2-.4l9.4 16.2c-1.2.9-2 2.4-2 4 0 1.7.9 3.2 2.2 4.1zm94.9 25c-1.5.9-2.5 2.5-2.5 4.3 0 1.9 1 3.5 2.5 4.3l-9 15.5c-.3 0-.5-.1-.8-.1-2.7 0-4.9 2.1-5 4.7h-19.9c-.1-2.6-2.3-4.7-5-4.7-1 0-1.9.3-2.7.8l-9.3-16.2c1.6-.8 2.6-2.5 2.6-4.4s-1.1-3.6-2.6-4.4l9.3-16.2c.8.5 1.7.8 2.7.8 2.7 0 4.9-2.1 5-4.7h19.9c.1 2.6 2.3 4.7 5 4.7.3 0 .5 0 .8-.1zm-9-25.4c-.3 0-.5-.1-.8-.1-2.7 0-4.9 2.1-5 4.7h-19.9c-.1-2.6-2.3-4.7-5-4.7-1 0-1.9.3-2.7.8l-9.3-16.2c1.6-.8 2.6-2.5 2.6-4.4s-1.1-3.5-2.6-4.4l9.3-16.2c.8.5 1.7.8 2.6.8 2.7 0 4.9-2.1 5-4.7h19.9c.1 2.6 2.3 4.7 5 4.7h.6l9.2 16c-1.1.9-1.8 2.3-1.8 3.8 0 1.6.8 3 1.9 3.9zm42.7-24.6c-.5-.2-1-.2-1.5-.2-2.7 0-4.9 2.1-5 4.7h-18.9c-.1-2.6-2.3-4.7-5-4.7-1 0-1.9.3-2.7.8l-9.1-15.8c2.1-.6 3.7-2.5 3.7-4.8s-1.6-4.3-3.7-4.8l9.5-16.5c.9.9 2.2 1.5 3.6 1.5 2.7 0 4.9-2.1 5-4.7h17.6c.1 2.6 2.3 4.7 5 4.7.5 0 1-.1 1.5-.2l9.4 16.3c-1 .9-1.6 2.2-1.6 3.6s.6 2.8 1.6 3.7zm43.1 74.2h-.3c-2.7 0-4.9 2.1-5 4.7h-19.9c-.1-2.6-2.3-4.7-5-4.7-1.1 0-2.2.4-3 1l-9.4-16.2c1.8-.8 3-2.5 3-4.6s-1.3-3.8-3-4.6l9.4-16.2c.8.6 1.9 1 3 1 2.7 0 4.9-2.1 5-4.7h18.4c.1 2.6 2.3 4.7 5 4.7.5 0 1-.1 1.5-.2l9.5 16.4c-1 .9-1.6 2.2-1.6 3.6 0 1.5.7 2.8 1.7 3.8zm51.6-49.2c-1.7.8-2.8 2.5-2.8 4.5s1.1 3.7 2.8 4.5l-9.2 15.9c-.7-.4-1.5-.6-2.3-.6-2.7 0-4.9 2.1-5 4.7h-17.6c-.1-2.6-2.3-4.7-5-4.7-1.1 0-2.1.3-2.9.9l-9.4-16.2c1.7-.8 2.9-2.5 2.9-4.5 0-2.1-1.2-3.8-3-4.6l9.4-16.2c.8.6 1.9 1 3 1 2.7 0 4.9-2.1 5-4.7h17.6c.1 2.6 2.3 4.7 5 4.7.8 0 1.6-.2 2.3-.6zm-9.2-24.7c-.7-.4-1.5-.6-2.3-.6-2.7 0-4.9 2.1-5 4.7h-17.6c-.1-2.6-2.3-4.7-5-4.7-1.1 0-2.2.4-3 1l-9.4-16.2c1.8-.8 3-2.5 3-4.6 0-2-1.2-3.7-2.9-4.5l9.4-16.2c.8.6 1.8.9 2.9.9 2.7 0 4.9-2.1 5-4.7h19.1c.1 2.6 2.3 4.7 5 4.7.4 0 .7 0 1-.1l8.9 15.4c-1.7.8-2.9 2.5-2.9 4.5s1.2 3.8 2.9 4.5zm43.3-15.9c1.6-.8 2.8-2.5 2.8-4.5 0-1.9-1.1-3.5-2.6-4.4l10.2-17.6c.9 1.3 2.4 2.2 4.1 2.2 2.7 0 4.9-2.1 5-4.7h17.6c.1 2.6 2.3 4.7 5 4.7h.6l9 15.5c-1.5.9-2.5 2.5-2.5 4.3 0 1.9 1 3.5 2.5 4.3l-9.4 16.2c-.7-.4-1.6-.7-2.6-.7-2.7 0-4.9 2.1-5 4.7h-17.6c-.1-2.6-2.3-4.7-5-4.7-1 0-2 .3-2.8.8zm0 49.6c1.6-.8 2.8-2.5 2.8-4.5s-1.1-3.6-2.8-4.5l9.4-16.2c.8.5 1.8.8 2.8.8 2.7 0 4.9-2.1 5-4.7h17.6c.1 2.6 2.3 4.7 5 4.7.9 0 1.8-.3 2.6-.7l9.3 16.2c-1.5.9-2.5 2.5-2.5 4.3 0 1.9 1 3.5 2.5 4.3l-9 15.5h-.6c-2.7 0-4.9 2.1-5 4.7h-19.9c-.1-2.6-2.3-4.7-5-4.7-1 0-2 .3-2.8.8zm9.4 24.5c.8.5 1.8.8 2.8.8 2.7 0 4.9-2.1 5-4.7h19.9c.1 2.6 2.3 4.7 5 4.7h.6l9 15.5c-1.5.9-2.5 2.5-2.5 4.3 0 1.9 1 3.5 2.5 4.3l-9.3 16.2c-.7-.4-1.6-.7-2.6-.7-2.7 0-4.9 2.1-5 4.7h-17.6c-.1-2.6-2.3-4.7-5-4.7-1 0-1.9.3-2.6.8l-9.3-16.2c1.6-.8 2.6-2.5 2.6-4.4 0-2-1.1-3.6-2.8-4.5zm-9.7 65.6c-.6-.2-1.2-.4-1.9-.4-2.7 0-4.9 2.1-5 4.7h-19.9c-.1-2.6-2.3-4.7-5-4.7-.6 0-1.1.1-1.6.3l-9.4-16.3c1-.9 1.7-2.3 1.7-3.7s-.7-2.8-1.7-3.7l9.4-16.3c.5.2 1.1.3 1.6.3 2.7 0 4.9-2.1 5-4.7h19.9c.1 2.6 2.3 4.7 5 4.7.6 0 1.2-.1 1.8-.3l9.4 16.3c-1.1.9-1.8 2.3-1.8 3.8 0 1.6.8 3 1.9 3.9zm83.2 4.4h-23.8c-.1-2.6-2.3-4.7-5-4.7-.7 0-1.4.2-2 .4l-9.4-16.2c1.2-.9 2-2.4 2-4s-.8-3.1-2-4l9.4-16.2c.6.3 1.3.4 2 .4 2.7 0 4.9-2.1 5-4.7h23.8l14.2 24.6zm0-49.6h-23.8c-.1-2.6-2.3-4.7-5-4.7-.7 0-1.4.1-2 .4l-8.9-15.4c2.2-.5 3.8-2.5 3.8-4.9s-1.6-4.3-3.8-4.9l8.9-15.4c.6.3 1.3.4 2 .4 2.7 0 4.9-2.1 5-4.7h23.8l14.2 24.6zm0-49.6h-23.8c-.1-2.6-2.3-4.7-5-4.7-.7 0-1.4.1-2 .4l-9.4-16.2c1.2-.9 2-2.4 2-4s-.8-3.1-2-4l9.4-16.2c.6.3 1.3.4 2 .4 2.7 0 4.9-2.1 5-4.7h23.8l14.2 24.6z"/>
 </g>
</svg>
