<svg xmlns="http://www.w3.org/2000/svg" viewBox="0 0 696 225">
	<g fill-rule="evenodd" fill="none">
		<path fill="#D32A2B" d="m483.82.134c-35.82 0-64.86 29.038-64.86 64.857v65.289h25.18v-64.505c0-21.913 17.77-39.675 39.68-39.675s39.68 17.762 39.68 39.675v64.505h25.18v-65.289c0-35.819-29.04-64.857-64.86-64.857"/>
		<g fill="#fff">
			<path d="m482.88 52.773c-7.01 0-12.7 5.683-12.7 12.694v64.703h25.39v-64.703c0-7.011-5.68-12.694-12.69-12.694"/>
			<path d="m26.713 66.171c0-21.355 17.311-38.667 38.668-38.667h56.709l6.79-25.332h-63.417c-35.347 0-64 28.654-64 64 0 35.348 28.653 63.998 64 63.998h63.497v-25.33h-63.579c-21.357 0-38.668-17.314-38.668-38.669"/>
			<path d="m365.48 53.402l-48.97-.001c-7.2 0-13.04-5.837-13.04-13.038s5.84-13.038 13.04-13.038h80.82v-25.276h-80.81c-21.23 0-38.44 17.208-38.44 38.436s17.21 38.305 38.44 38.305l49.02.009c7.2 0 13.04 5.838 13.04 13.039s-5.84 13.042-13.04 13.042h-86.24l-6.8 25.4h92.98c21.23 0 38.44-17.21 38.44-38.442 0-21.228-17.21-38.436-38.44-38.436"/>
			<path d="m200.64 106.8c-22.44 0-40.63-18.189-40.63-40.629 0-22.439 18.19-40.63 40.63-40.63s40.63 18.192 40.63 40.63c0 22.44-18.19 40.629-40.63 40.629m0-106.56c-36.42 0-65.94 29.52-65.94 65.933 0 36.419 29.52 65.929 65.94 65.929 36.41 0 65.93-29.51 65.93-65.929 0-36.413-29.52-65.933-65.93-65.933"/>
			<path d="m628.6 106.8c-22.44 0-40.62-18.189-40.62-40.629 0-22.439 18.18-40.63 40.62-40.63s40.63 18.192 40.63 40.63c0 22.44-18.19 40.629-40.63 40.629m0-106.56c-36.41 0-65.93 29.52-65.93 65.933 0 36.419 29.52 65.929 65.93 65.929 36.42 0 65.94-29.51 65.94-65.929 0-36.413-29.52-65.933-65.94-65.933"/>
			<path d="m.431 196.96c0-3.73.644-7.27 1.936-10.6 1.289-3.32 3.107-6.21 5.451-8.66 2.342-2.44 5.109-4.38 8.303-5.8 3.191-1.43 6.689-2.14 10.494-2.14 4.821 0 9.05 1.09 12.683 3.26 3.634 2.17 6.402 5.2 8.305 9.07l-4.993 1.63c-1.564-2.92-3.804-5.22-6.724-6.88-2.922-1.66-6.113-2.5-9.577-2.5-2.921 0-5.639.58-8.151 1.74-2.513 1.15-4.704 2.75-6.572 4.78-1.868 2.04-3.328 4.44-4.38 7.19-1.054 2.75-1.58 5.72-1.58 8.91 0 3.2.561 6.2 1.682 9.02 1.12 2.82 2.613 5.26 4.482 7.33 1.868 2.08 4.059 3.72 6.572 4.95 2.512 1.22 5.196 1.83 8.049 1.83 1.833 0 3.65-.27 5.45-.82 1.799-.54 3.464-1.25 4.993-2.14 1.527-.88 2.853-1.91 3.973-3.1 1.121-1.19 1.884-2.43 2.292-3.72l4.992 1.43c-.680 1.83-1.715 3.54-3.107 5.14-1.393 1.6-3.041 2.97-4.941 4.13-1.903 1.15-3.991 2.05-6.266 2.69-2.276.65-4.635.97-7.081.97-3.736 0-7.199-.73-10.391-2.19-3.194-1.46-5.961-3.46-8.304-6.01s-4.195-5.48-5.552-8.81c-1.36-3.33-2.038-6.89-2.038-10.7"/>
			<path d="m86.113 197.47c0 3.13.543 6.06 1.63 8.81 1.086 2.75 2.564 5.15 4.432 7.19 1.867 2.03 4.057 3.65 6.571 4.84 2.514 1.18 5.194 1.78 8.054 1.78 2.85 0 5.53-.60 8.04-1.78 2.52-1.19 4.71-2.84 6.58-4.95 1.86-2.1 3.36-4.53 4.48-7.28s1.68-5.72 1.68-8.92c0-3.12-.56-6.06-1.68-8.81s-2.62-5.16-4.48-7.23c-1.87-2.07-4.06-3.72-6.58-4.94-2.51-1.23-5.19-1.84-8.04-1.84-2.79 0-5.44.61-7.951 1.84-2.514 1.22-4.722 2.88-6.623 4.99-1.902 2.11-3.397 4.57-4.483 7.39-1.087 2.82-1.63 5.79-1.63 8.91m20.687 27.2c-3.74 0-7.188-.73-10.345-2.19-3.16-1.46-5.894-3.44-8.203-5.96-2.31-2.51-4.11-5.43-5.399-8.76-1.291-3.33-1.936-6.83-1.936-10.49 0-3.74.663-7.27 1.987-10.6 1.325-3.33 3.158-6.25 5.501-8.76 2.344-2.51 5.076-4.5 8.201-5.96 3.124-1.46 6.524-2.19 10.194-2.19 3.66 0 7.08.73 10.23 2.19 3.16 1.46 5.91 3.45 8.26 5.96 2.34 2.51 4.17 5.43 5.5 8.76 1.32 3.33 1.99 6.86 1.99 10.6 0 3.66-.67 7.16-1.99 10.49-1.33 3.33-3.14 6.25-5.45 8.76-2.31 2.52-5.06 4.5-8.26 5.96-3.19 1.46-6.62 2.19-10.28 2.19"/>
			<path d="m213.57 223.65h-5.1v-29.54c0-6.86-.97-11.85-2.9-14.98-1.94-3.12-5.04-4.69-9.32-4.69-2.25 0-4.47.41-6.68 1.23-2.2.81-4.24 1.97-6.11 3.46-1.87 1.5-3.51 3.25-4.94 5.25s-2.48 4.16-3.16 6.47v32.8h-5.09v-52.97h4.68v12.63c1.09-2.04 2.45-3.89 4.08-5.55 1.63-1.67 3.43-3.09 5.4-4.28s4.09-2.11 6.37-2.75c2.27-.65 4.6-.97 6.98-.97 5.77 0 9.84 2.02 12.22 6.06s3.57 9.83 3.57 17.37v30.46"/>
			<path d="m297.42 223.65h-5.1v-29.54c0-6.86-.97-11.85-2.9-14.98-1.94-3.12-5.04-4.69-9.32-4.69-2.25 0-4.47.41-6.68 1.23-2.21.81-4.24 1.97-6.11 3.46-1.87 1.5-3.51 3.25-4.94 5.25s-2.48 4.16-3.16 6.47v32.8h-5.09v-52.97h4.68v12.63c1.09-2.04 2.45-3.89 4.08-5.55 1.63-1.67 3.43-3.09 5.4-4.28s4.09-2.11 6.37-2.75c2.27-.65 4.6-.97 6.97-.97 5.78 0 9.85 2.02 12.23 6.06s3.57 9.83 3.57 17.37v30.46"/>
			<path d="m381.37 195.13c-.21-3.13-.90-5.98-2.09-8.56s-2.72-4.81-4.59-6.67c-1.87-1.87-4.02-3.33-6.47-4.38-2.44-1.06-5.06-1.58-7.84-1.58-2.79 0-5.4.52-7.85 1.58-2.44 1.05-4.6 2.51-6.47 4.38-1.86 1.86-3.36 4.11-4.48 6.72-1.12 2.62-1.78 5.45-1.98 8.51h41.77zm-20.79 29.54c-3.73 0-7.2-.73-10.39-2.19s-5.96-3.46-8.3-6.01c-2.35-2.55-4.18-5.48-5.5-8.81-1.33-3.33-1.99-6.89-1.99-10.7 0-3.73.66-7.25 1.99-10.54 1.32-3.3 3.14-6.18 5.45-8.66s5.06-4.44 8.25-5.86c3.19-1.43 6.62-2.14 10.29-2.14 3.73 0 7.18.73 10.34 2.19s5.89 3.43 8.2 5.91 4.13 5.36 5.45 8.66c1.33 3.29 1.99 6.77 1.99 10.44 0 .34-.02.76-.05 1.28-.04.50-.05.83-.05.96h-46.56c.20 3.06.91 5.9 2.14 8.51 1.22 2.62 2.76 4.87 4.63 6.77 1.87 1.91 4.03 3.4 6.47 4.49 2.45 1.09 5.06 1.63 7.85 1.63 1.83 0 3.65-.26 5.45-.77s3.46-1.2 4.99-2.09c1.53-.88 2.89-1.95 4.07-3.2 1.19-1.26 2.13-2.64 2.81-4.13l4.48 1.22c-.82 1.91-1.95 3.65-3.41 5.25s-3.16 2.97-5.1 4.12c-1.93 1.16-4.06 2.06-6.36 2.7-2.32.65-4.69.97-7.14.97z"/>
			<path d="m419.37 196.96c0-3.73.65-7.27 1.93-10.6 1.29-3.32 3.11-6.21 5.46-8.66 2.34-2.44 5.1-4.38 8.3-5.8 3.19-1.43 6.69-2.14 10.49-2.14 4.83 0 9.05 1.09 12.69 3.26 3.63 2.17 6.4 5.2 8.3 9.07l-4.99 1.63c-1.57-2.92-3.81-5.22-6.73-6.88s-6.11-2.5-9.57-2.5c-2.93 0-5.64.58-8.15 1.74-2.52 1.15-4.71 2.75-6.58 4.78-1.86 2.04-3.32 4.44-4.38 7.19-1.05 2.75-1.58 5.72-1.58 8.91 0 3.2.57 6.2 1.69 9.02s2.61 5.26 4.48 7.33c1.87 2.08 4.06 3.72 6.57 4.95 2.51 1.22 5.2 1.83 8.05 1.83 1.83 0 3.65-.27 5.45-.82 1.8-.54 3.46-1.25 4.99-2.14 1.53-.88 2.85-1.91 3.97-3.1 1.13-1.19 1.89-2.43 2.3-3.72l4.99 1.43c-.68 1.83-1.72 3.54-3.11 5.14s-3.04 2.97-4.94 4.13c-1.9 1.15-3.99 2.05-6.26 2.69-2.28.65-4.64.97-7.08.97-3.74 0-7.21-.73-10.4-2.19s-5.96-3.46-8.3-6.01-4.2-5.48-5.55-8.81c-1.36-3.33-2.04-6.89-2.04-10.7"/>
			<path d="m527.87 221.11c-.27.13-.73.39-1.37.76-.65.38-1.46.73-2.45 1.07s-2.09.65-3.31.92-2.55.40-3.97.40c-1.43 0-2.77-.20-4.03-.60-1.26-.41-2.36-1.02-3.31-1.84-.95-.81-1.71-1.8-2.29-2.96-.58-1.15-.87-2.51-.87-4.07v-39.94h-7.43v-4.17h7.43v-18.14h5.1v18.14h12.43v4.17h-12.43v38.72c0 1.97.67 3.45 2.03 4.43s2.92 1.48 4.69 1.48c2.11 0 3.92-.36 5.45-1.07 1.53-.72 2.46-1.17 2.8-1.38l1.53 4.08"/>
			<path d="m605.3 195.13c-.20-3.13-.90-5.98-2.09-8.56s-2.71-4.81-4.58-6.67c-1.87-1.87-4.03-3.33-6.47-4.38-2.45-1.06-5.06-1.58-7.85-1.58-2.78 0-5.4.52-7.84 1.58-2.45 1.05-4.6 2.51-6.47 4.38-1.87 1.86-3.36 4.11-4.48 6.72-1.12 2.62-1.79 5.45-1.99 8.51h41.77zm-20.78 29.54c-3.74 0-7.2-.73-10.39-2.19-3.2-1.46-5.96-3.46-8.31-6.01-2.34-2.55-4.17-5.48-5.5-8.81-1.32-3.33-1.99-6.89-1.99-10.7 0-3.73.67-7.25 1.99-10.54 1.33-3.3 3.14-6.18 5.45-8.66s5.06-4.44 8.25-5.86c3.2-1.43 6.63-2.14 10.29-2.14 3.74 0 7.19.73 10.35 2.19 3.15 1.46 5.89 3.43 8.2 5.91 2.3 2.48 4.12 5.36 5.45 8.66 1.32 3.29 1.98 6.77 1.98 10.44 0 .34-.01.76-.05 1.28-.03.50-.05.83-.05.96h-46.56c.21 3.06.92 5.9 2.14 8.51 1.22 2.62 2.77 4.87 4.64 6.77 1.86 1.91 4.02 3.4 6.47 4.49 2.44 1.09 5.06 1.63 7.84 1.63 1.84 0 3.65-.26 5.45-.77s3.47-1.2 4.99-2.09c1.53-.88 2.89-1.95 4.08-3.2 1.19-1.26 2.12-2.64 2.8-4.13l4.48 1.22c-.81 1.91-1.95 3.65-3.41 5.25s-3.16 2.97-5.09 4.12c-1.94 1.16-4.06 2.06-6.37 2.7-2.31.65-4.69.97-7.13.97z"/>
			<path d="m669.69 220.09c1.83 0 3.8-.37 5.91-1.12s4.08-1.79 5.91-3.11 3.38-2.83 4.64-4.53c1.25-1.7 1.98-3.53 2.19-5.51v-17.42c-.75-1.9-1.82-3.72-3.21-5.45-1.4-1.73-2.97-3.22-4.74-4.48s-3.67-2.26-5.71-3.01c-2.03-.74-4-1.12-5.91-1.12-3.05 0-5.82.66-8.3 1.99-2.48 1.32-4.62 3.06-6.42 5.2-1.8 2.13-3.17 4.58-4.12 7.33s-1.43 5.59-1.43 8.51c0 3.05.54 5.94 1.63 8.66s2.6 5.13 4.53 7.23c1.94 2.11 4.18 3.77 6.73 5 2.55 1.22 5.31 1.83 8.3 1.83m-.92 4.58c-3.66 0-7.06-.76-10.18-2.29-3.13-1.53-5.83-3.56-8.1-6.11-2.28-2.55-4.05-5.47-5.3-8.76-1.26-3.3-1.89-6.71-1.89-10.24 0-3.67.62-7.17 1.84-10.5s2.92-6.25 5.09-8.76 4.74-4.52 7.69-6.01c2.96-1.49 6.2-2.24 9.73-2.24 2.31 0 4.5.34 6.58 1.02 2.07.68 3.97 1.58 5.7 2.7s3.31 2.43 4.74 3.92c1.43 1.5 2.65 3.09 3.67 4.79v-32.91h5.09v67.24c0 1.7.71 2.55 2.14 2.55v4.59c-.34.06-.65.10-.92.10h-.81c-1.5 0-2.7-.48-3.62-1.43s-1.37-2-1.37-3.16v-6.11c-2.18 3.53-5.08 6.35-8.71 8.46-3.64 2.1-7.43 3.15-11.37 3.15"/>
		</g>
	</g>
</svg>
